<?xml version="1.0" encoding="utf-8"?>
<!-- Generator: Adobe Illustrator 24.1.1, SVG Export Plug-In . SVG Version: 6.00 Build 0)  -->
<svg version="1.1" id="Layer_1" xmlns="http://www.w3.org/2000/svg" xmlns:xlink="http://www.w3.org/1999/xlink" x="0px" y="0px"
	 viewBox="0 0 1268.4 1149.8" style="enable-background:new 0 0 1268.4 1149.8;" xml:space="preserve">
<style type="text/css">
	.st0{fill:url(#SVGID_1_);}
	.st1{fill:none;stroke:url(#SVGID_2_);stroke-miterlimit:10;}
	.st2{fill:#FFFEF5;}
	.st3{fill:#CDC9BD;}
	.st4{fill:#E9E6DB;}
	.st5{fill:#F5F0E4;}
	.st6{fill:#FFFFFF;}
	.st7{opacity:0.46;fill:url(#SVGID_3_);enable-background:new    ;}
	.st8{fill:#6981C0;}
	.st9{fill:#8196CC;}
	.st10{fill:#3B52A2;}
	.st11{fill:#224698;}
	.st12{fill:#4763AC;}
	.st13{fill:#5079BC;}
	.st14{fill:#214184;}
	.st15{fill:#24499B;}
	.st16{fill:#5977B2;}
	.st17{opacity:0.38;fill:#224698;enable-background:new    ;}
	.st18{opacity:0.72;fill:#1D2251;enable-background:new    ;}
	.st19{fill:#1D2251;}
	.st20{opacity:0.66;fill:#CBEBF3;enable-background:new    ;}
	.st21{fill:#CBEBF3;}
	.st22{fill:#721634;}
	.st23{fill:#36121F;}
	.st24{fill:url(#SVGID_4_);}
	.st25{fill:#131735;}
	.st26{fill:url(#SVGID_5_);}
	.st27{fill:#F28082;}
	.st28{fill:#D86F74;}
	.st29{fill:url(#SVGID_6_);}
	.st30{opacity:0.54;fill:url(#SVGID_7_);enable-background:new    ;}
	.st31{opacity:0.54;fill:url(#SVGID_8_);enable-background:new    ;}
	.st32{opacity:0.54;fill:url(#SVGID_9_);enable-background:new    ;}
	.st33{fill:url(#SVGID_10_);}
	.st34{fill:url(#SVGID_11_);}
	.st35{opacity:0.14;fill:#721634;enable-background:new    ;}
	.st36{fill:url(#SVGID_12_);}
	.st37{opacity:0.51;fill:#721634;enable-background:new    ;}
	.st38{fill:url(#SVGID_13_);}
	.st39{fill:#AF1E47;}
	.st40{opacity:0.46;fill:url(#SVGID_14_);enable-background:new    ;}
	.st41{opacity:0.54;fill:url(#SVGID_15_);enable-background:new    ;}
	.st42{opacity:0.54;fill:url(#SVGID_16_);enable-background:new    ;}
	.st43{opacity:0.54;fill:url(#SVGID_17_);enable-background:new    ;}
	.st44{fill:url(#SVGID_18_);}
	.st45{fill:url(#SVGID_19_);}
	.st46{fill:url(#SVGID_20_);}
	.st47{opacity:0.54;fill:url(#SVGID_21_);enable-background:new    ;}
	.st48{fill:url(#SVGID_22_);}
	.st49{opacity:0.27;fill:#131735;enable-background:new    ;}
	.st50{fill:none;stroke:#000000;stroke-miterlimit:10;}
	.st51{fill:url(#SVGID_23_);}
	.st52{fill:url(#SVGID_24_);}
	.st53{fill:url(#SVGID_25_);}
	.st54{fill:url(#SVGID_26_);}
	.st55{fill:url(#SVGID_27_);}
	.st56{fill:url(#SVGID_28_);}
	.st57{fill:none;stroke:url(#SVGID_29_);stroke-width:7;stroke-miterlimit:10;}
	.st58{fill:none;stroke:url(#SVGID_30_);stroke-width:7;stroke-miterlimit:10;}
	.st59{fill:none;stroke:url(#SVGID_31_);stroke-width:7;stroke-miterlimit:10;}
	.st60{fill:none;stroke:url(#SVGID_32_);stroke-width:7;stroke-miterlimit:10;}
	.st61{fill:#FFC713;}
	.st62{fill:url(#SVGID_33_);}
	.st63{fill:#FEE091;}
	.st64{fill:url(#SVGID_34_);}
	.st65{fill:url(#SVGID_35_);}
	.st66{fill:url(#SVGID_36_);}
	.st67{fill:url(#SVGID_37_);}
	.st68{fill:#342B52;}
	.st69{fill:url(#SVGID_38_);}
	.st70{opacity:0.36;fill:#721634;enable-background:new    ;}
	.st71{fill:url(#SVGID_39_);}
	.st72{fill:url(#SVGID_40_);}
	.st73{fill:url(#SVGID_41_);}
	.st74{fill:url(#SVGID_42_);}
	.st75{fill:none;stroke:#342B52;stroke-width:2;stroke-miterlimit:10;}
	.st76{opacity:0.48;fill:#FFFFFF;enable-background:new    ;}
	.st77{opacity:0.24;}
	.st78{fill:url(#SVGID_43_);}
	.st79{opacity:8.000000e-02;fill:#FFFFFF;enable-background:new    ;}
	.st80{fill:url(#SVGID_44_);}
</style>
<g id="Layer_3">
	
		<linearGradient id="SVGID_1_" gradientUnits="userSpaceOnUse" x1="637.6503" y1="196.6086" x2="637.6503" y2="994.9468" gradientTransform="matrix(1 0 0 -1 0 1101.6171)">
		<stop  offset="0" style="stop-color:#5D3B7F"/>
		<stop  offset="5.259043e-02" style="stop-color:#653D80"/>
		<stop  offset="0.1474" style="stop-color:#7B4485"/>
		<stop  offset="0.2736" style="stop-color:#9E518E"/>
		<stop  offset="0.4248" style="stop-color:#D4699E"/>
		<stop  offset="0.4783" style="stop-color:#EB74A6"/>
		<stop  offset="1" style="stop-color:#E3A1C0"/>
	</linearGradient>
	<path class="st0" d="M1102.1,771.7c-1.4,8.3-5.2,16.5-11.4,24.5c-2.8,3.6-6,7.1-9.7,10.6c-3,2.8-6.3,5.7-9.9,8.4
		c-9.3,7.2-20.6,14.2-33.7,20.8c-10.4,5.3-22,10.4-34.6,15.2c-6.8,2.6-13.9,5.2-21.4,7.6l0,0c-3.6,1.2-7.3,2.4-11.1,3.6
		c-9.8,3-20.1,6-30.8,8.8c-6.4,1.6-12.9,3.2-19.5,4.8c-26.3,6.1-54.9,11.4-85.5,15.8c-1.9,0.3-3.9,0.5-5.9,0.8
		c-4.8,0.6-9.6,1.3-14.4,1.9c-0.1,0-0.2,0-0.4,0l0,0c-10.3,1.3-20.8,2.5-31.4,3.5c-0.5,0.1-1,0.1-1.5,0.2c-3.4,0.3-6.8,0.7-10.3,1
		l0,0c-1.7,0.2-3.5,0.3-5.2,0.5c-1.6,0.2-3.2,0.3-4.8,0.4c-2.1,0.2-4.2,0.4-6.4,0.5c-3.6,0.3-7.2,0.6-10.9,0.8c-0.1,0-0.1,0-0.2,0
		c-2.8,0.2-5.7,0.4-8.6,0.6l0,0c-1.2,0.1-2.4,0.2-3.6,0.2c-3.5,0.2-7,0.4-10.5,0.6c-0.3,0-0.6,0-0.9,0c-0.3,0-0.5,0-0.8,0
		c-7.3,0.4-14.6,0.7-22.1,1h-0.1h-0.1h-0.1l0,0c-8.1,0.3-16.3,0.6-24.6,0.8c-0.5,0-0.9,0-1.4,0c-9.4,0.2-18.9,0.3-28.5,0.4l0,0
		c-6.3,0-12.7,0-19.2,0c-5.6,0-11.3-0.1-16.9-0.2l0,0c-3.5-0.1-7.1-0.1-10.7-0.2c-3.8-0.1-7.6-0.2-11.5-0.3
		c-2.9-0.1-5.9-0.2-8.9-0.3c-3.5-0.1-7-0.3-10.5-0.4l0,0c-3.5-0.1-7-0.3-10.6-0.5c-8.8-0.4-17.6-0.9-26.4-1.5
		c-4.4-0.3-8.8-0.6-13.3-0.9c-1.1-0.1-2.1-0.1-3.2-0.2c-0.9-0.1-1.7-0.1-2.6-0.2l0,0c-0.1,0-0.2,0-0.4,0l0,0
		c-1.4-0.1-2.8-0.2-4.2-0.3l0,0c-1.1-0.1-2.2-0.2-3.3-0.2c-0.5,0-0.9-0.1-1.4-0.1l0,0c-0.1,0-0.1,0-0.2,0c-0.2,0-0.5,0-0.7-0.1
		c-2.6-0.2-5.2-0.4-7.8-0.6c-0.6,0-1.1-0.1-1.7-0.1c-1.4-0.1-2.8-0.2-4.2-0.4l0,0c-0.5,0-1.1-0.1-1.6-0.1c-2.9-0.3-5.7-0.5-8.5-0.8
		c-1.4-0.2-2.8-0.3-4.1-0.4c-1-0.1-2.1-0.2-3.1-0.3c-0.6-0.1-1.2-0.1-1.8-0.2c-1.2-0.1-2.4-0.3-3.7-0.4c-1.2-0.1-2.5-0.3-3.7-0.5
		c-7.5-0.9-14.8-1.9-21.9-3c-5.5-0.8-11-1.8-16.3-2.7l0,0c-6.6-1.2-13.1-2.5-19.4-3.8c-0.1,0-0.1,0-0.2,0
		c-7.1-1.5-13.9-3.1-20.6-4.8c-2.2-0.5-4.3-1.1-6.4-1.7c-2-0.5-4.1-1.1-6.1-1.6c-3.1-0.9-6.2-1.8-9.2-2.7c-2.3-0.7-4.7-1.4-6.9-2.1
		c-11.8-3.7-23-7.8-33.5-12.2c-0.9-0.4-1.8-0.8-2.7-1.1c-3.2-1.3-6.3-2.7-9.4-4.1c-3.9-1.8-7.7-3.6-11.4-5.5
		c-2.2-1.1-4.3-2.2-6.4-3.3c-0.8-0.4-1.6-0.9-2.4-1.3c-4.8-2.6-9.4-5.3-13.8-8c-9.5-5.8-18.2-12-26.3-18.6c-1.8-1.4-3.6-2.9-5.3-4.4
		c-4.6-3.9-8.9-8-13-12.2c-2.8-2.8-5.4-5.6-8-8.5c-1-1.1-2-2.3-2.9-3.4c-6.9-8.2-12.9-16.8-18.2-25.7c-2.3-4-4.5-8-6.5-12.1
		c-4.3-8.9-7.9-18.1-10.7-27.5c-1.2-4.1-2.3-8.1-3.2-12.3c-3.5-15.3-5.1-31.3-4.9-47.8c0-1.6,0-3.2,0.1-4.7l0,0
		c1.8-57.2,24.6-120.6,65.6-185.8c130.5-207.4,462-343.8,462-343.8c240.6-84,263.7,66.5,174.5,179.8S818.8,571.6,917,604.4
		C1015,636.8,1115.8,687.8,1102.1,771.7z"/>
	
		<linearGradient id="SVGID_2_" gradientUnits="userSpaceOnUse" x1="607.1016" y1="199.6958" x2="607.1016" y2="999.6469" gradientTransform="matrix(1 0 0 -1 0 1101.6171)">
		<stop  offset="0" style="stop-color:#1D224C"/>
		<stop  offset="1" style="stop-color:#2C326E"/>
	</linearGradient>
	<path class="st1" d="M669.1,126.9c0,0-331.5,136.3-462,343.8s-76.7,396.8,252.5,424.6s598.3-43.5,612-127.4S984.5,633,886.3,600.2
		c-98.2-32.7-132-180.1-42.8-293.5C932.8,193.4,909.7,42.9,669.1,126.9z"/>
	<g>
		<polygon class="st2" points="503.9,350.5 457.8,359.7 417.9,353.6 342.2,371 284.2,359.7 264.1,338.7 307.9,325.9 334.4,330.3 
			382.8,325.9 453.9,345 		"/>
		<polygon class="st3" points="353.3,358 417.9,353.6 342.2,371 284.2,359.7 264.1,338.7 300.2,352.1 		"/>
		<polygon class="st3" points="503.9,350.5 457.8,359.7 417.9,353.6 446.2,350.7 		"/>
		<polygon class="st4" points="453.9,345 417.9,348.4 374.8,342 420.6,336 		"/>
	</g>
	<g>
		<polygon class="st2" points="969.6,472.4 923.6,481.5 883.6,475.4 808,492.8 750,481.5 729.8,460.6 773.7,447.7 800.2,452.2 
			848.6,447.7 919.7,466.8 		"/>
		<polygon class="st3" points="819.1,479.8 883.6,475.4 808,492.8 750,481.5 729.8,460.6 765.9,474 		"/>
		<polygon class="st3" points="969.6,472.4 923.6,481.5 883.6,475.4 912,472.5 		"/>
		<polygon class="st4" points="919.7,466.8 883.6,470.3 840.6,463.8 886.4,457.9 		"/>
	</g>
	<g>
		<polygon class="st2" points="396.8,463.9 411.8,467.6 436.7,473 455.9,468.6 472.4,468.6 489.7,461.9 478.8,450 443.4,442.8 
			420.7,453.6 405.5,455.9 		"/>
		<polygon class="st4" points="396.8,463.9 411.8,467.6 436.7,473 455.9,468.6 468.4,468.6 474,460.4 454,456 438,457.9 
			421.4,463.3 405.5,455.9 		"/>
		<polygon class="st3" points="474,460.4 455.9,468.6 472.4,468.6 489.7,461.9 		"/>
		<polygon class="st3" points="396.8,463.9 411.8,467.6 436.7,473 455.9,468.6 438,464.5 420.7,466.5 410.3,460.4 		"/>
		<polygon class="st5" points="438,457.9 422.1,455.9 405.5,455.9 421.4,463.3 		"/>
		<polygon class="st5" points="474,450 459.5,450 454.4,453.6 464.2,454.7 		"/>
	</g>
	<g>
		<polygon class="st2" points="823.6,308.5 838.6,312.1 863.5,317.5 882.7,313.1 899.2,313.1 916.5,306.4 905.6,294.5 870.2,287.3 
			847.4,298.1 832.3,300.4 		"/>
		<polygon class="st4" points="823.6,308.5 838.6,312.1 863.5,317.5 882.7,313.1 895.1,313.1 900.8,305 880.8,300.5 864.8,302.4 
			848.1,307.8 832.3,300.4 		"/>
		<polygon class="st3" points="900.8,305 882.7,313.1 899.2,313.1 916.5,306.4 		"/>
		<polygon class="st3" points="823.6,308.5 838.6,312.1 863.5,317.5 882.7,313.1 864.8,309 847.5,311 837.1,305 		"/>
		<polygon class="st5" points="864.8,302.4 848.9,300.4 832.3,300.4 848.1,307.8 		"/>
		<polygon class="st5" points="900.8,294.5 886.3,294.5 881.2,298.1 891,299.3 		"/>
	</g>
	<g>
		<polygon class="st2" points="586.6,174.2 601.6,177.9 626.5,183.3 645.7,178.8 662.2,178.8 679.5,172.1 668.6,160.3 633.2,153 
			610.5,163.8 595.3,166.1 		"/>
		<polygon class="st4" points="586.6,174.2 601.6,177.9 626.5,183.3 645.7,178.8 658.2,178.8 663.8,170.7 643.8,166.3 627.8,168.1 
			611.2,173.6 595.3,166.1 		"/>
		<polygon class="st3" points="663.8,170.7 645.7,178.8 662.2,178.8 679.5,172.1 		"/>
		<polygon class="st3" points="586.6,174.2 601.6,177.9 626.5,183.3 645.7,178.8 627.8,174.8 610.5,176.7 600.1,170.7 		"/>
		<polygon class="st5" points="627.8,168.1 611.9,166.1 595.3,166.1 611.2,173.6 		"/>
		<polygon class="st5" points="663.8,160.3 649.3,160.3 644.2,163.8 654,165 		"/>
	</g>
	<g>
		<polygon class="st2" points="219.5,518.8 234.4,522.5 259.4,527.9 278.6,523.5 295.1,523.5 312.4,516.8 301.4,504.9 266,497.7 
			243.3,508.5 228.2,510.8 		"/>
		<polygon class="st4" points="219.5,518.8 234.4,522.5 259.4,527.9 278.6,523.5 291,523.5 296.6,515.4 276.7,510.9 260.7,512.8 
			244,518.2 228.2,510.8 		"/>
		<polygon class="st3" points="296.6,515.4 278.6,523.5 295.1,523.5 312.4,516.8 		"/>
		<polygon class="st3" points="219.5,518.8 234.4,522.5 259.4,527.9 278.6,523.5 260.7,519.4 243.4,521.4 232.9,515.4 		"/>
		<polygon class="st5" points="260.7,512.8 244.8,510.8 228.2,510.8 244,518.2 		"/>
		<polygon class="st5" points="296.6,504.9 282.2,504.9 277.1,508.5 286.9,509.7 		"/>
	</g>
	<g>
		<polygon class="st2" points="748.6,180.9 787.9,190.5 853.3,204.6 903.6,193.1 946.8,193.1 992.1,175.5 963.5,144.4 870.7,125.4 
			811.1,153.7 771.5,159.7 		"/>
		<polygon class="st4" points="748.6,180.9 787.9,190.5 853.3,204.6 903.6,193.1 936.2,193.1 950.9,171.8 898.6,160.1 856.6,165 
			813,179.2 771.5,159.7 		"/>
		<polygon class="st3" points="950.9,171.8 903.6,193.1 946.8,193.1 992.1,175.5 		"/>
		<polygon class="st3" points="748.6,180.9 787.9,190.5 853.3,204.6 903.6,193.1 856.6,182.4 811.3,187.6 783.9,171.8 		"/>
		<polygon class="st5" points="856.6,165 814.9,159.7 771.5,159.7 813,179.2 		"/>
		<polygon class="st5" points="950.9,144.4 913,144.4 899.7,153.7 925.3,156.8 		"/>
	</g>
	<g>
		<polygon class="st2" points="873,735.4 912.3,745 977.7,759.2 1028,747.6 1071.2,747.6 1116.5,730 1087.9,698.9 995.1,679.9 
			935.5,708.3 895.8,714.3 		"/>
		<polygon class="st4" points="873,735.4 912.3,745 977.7,759.2 1028,747.6 1060.6,747.6 1075.3,726.3 1023,714.7 981,719.5 
			937.4,733.8 895.8,714.3 		"/>
		<polygon class="st3" points="1075.3,726.3 1028,747.6 1071.2,747.6 1116.5,730 		"/>
		<polygon class="st3" points="873,735.4 912.3,745 977.7,759.2 1028,747.6 981,737 935.7,742.1 908.3,726.3 		"/>
		<polygon class="st5" points="981,719.5 939.3,714.3 895.8,714.3 937.4,733.8 		"/>
		<polygon class="st5" points="1075.3,698.9 1037.4,698.9 1024.1,708.3 1049.7,711.3 		"/>
	</g>
	<g>
		<g>
			<path class="st6" d="M699.6,272.3c1.9,0,1.9-3,0-3S697.7,272.3,699.6,272.3L699.6,272.3z"/>
		</g>
	</g>
	<g>
		<g>
			<path class="st6" d="M835,196.7c1.9,0,1.9-3,0-3S833,196.7,835,196.7L835,196.7z"/>
		</g>
	</g>
	<g>
		<g>
			<path class="st6" d="M780.7,386.1c1.9,0,1.9-3,0-3S778.8,386.1,780.7,386.1L780.7,386.1z"/>
		</g>
	</g>
	<g>
		<g>
			<path class="st6" d="M341,427.5c1.9,0,1.9-3,0-3C339,424.5,339,427.5,341,427.5L341,427.5z"/>
		</g>
	</g>
	
		<linearGradient id="SVGID_3_" gradientUnits="userSpaceOnUse" x1="234.1808" y1="83.9085" x2="924.7808" y2="83.9085" gradientTransform="matrix(1 0 0 -1 0 1101.6171)">
		<stop  offset="3.794483e-02" style="stop-color:#50B8DC"/>
		<stop  offset="1" style="stop-color:#FFFFFF"/>
	</linearGradient>
	<ellipse class="st7" cx="579.5" cy="1017.7" rx="345.3" ry="46.7"/>
	<polygon class="st8" points="737.8,907.9 738.3,908.9 737.1,907.8 737,907.7 737.7,907.8 	"/>
	<path class="st8" d="M747.1,908.6l2.9,0.3L747.1,908.6z"/>
	<path class="st8" d="M934.3,804.3l-9,6.7l-4.6,3.4l-5.3,4l-13.7,10.3l-8,6l-60.4,45.2l-6.8,5l-12.5,9.4l-0.3,0.2l0,0
		c-10.3,1.3-20.8,2.5-31.4,3.5c-0.5,0.1-1,0.1-1.5,0.2c-3.4,0.3-6.8,0.7-10.3,1l0,0c-1.7,0.2-3.5,0.3-5.2,0.5
		c-1.6,0.2-3.2,0.3-4.8,0.4c-2.1,0.2-4.2,0.4-6.4,0.5c-3.6,0.3-7.2,0.6-10.9,0.8c-0.1,0-0.1,0-0.2,0c-2.8,0.2-5.7,0.4-8.6,0.6l0,0
		c-1.2,0.1-2.4,0.2-3.6,0.2c-3.5,0.2-7,0.4-10.5,0.6c-0.3,0-0.6,0-0.9,0c-0.3,0-0.5,0-0.8,0c-7.3,0.4-14.6,0.7-22.1,1h-0.1h-0.1
		h-0.1l0,0c-8.1,0.3-16.3,0.6-24.6,0.8c-0.5,0-0.9,0-1.4,0c-9.4,0.2-18.9,0.3-28.5,0.4l0,0c-6.3,0-12.7,0-19.2,0
		c-5.6,0-11.3-0.1-16.9-0.2l0,0c-3.5-0.1-7.1-0.1-10.7-0.2c-3.8-0.1-7.6-0.2-11.5-0.3c-2.9-0.1-5.9-0.2-8.9-0.3
		c-3.5-0.1-7-0.3-10.5-0.4l0,0c-3.5-0.1-7-0.3-10.6-0.5c-8.8-0.4-17.6-0.9-26.4-1.5c-4.4-0.3-8.8-0.6-13.3-0.9
		c-1.1-0.1-2.1-0.1-3.2-0.2c-0.9-0.1-1.7-0.1-2.6-0.2l0,0c-0.1,0-0.2,0-0.4,0l0,0c-1.4-0.1-2.8-0.2-4.2-0.3l0,0
		c-1.1-0.1-2.2-0.2-3.3-0.2c-0.5,0-0.9-0.1-1.4-0.1l0,0c-0.1,0-0.1,0-0.2,0c-0.2,0-0.5,0-0.7-0.1c-2.6-0.2-5.2-0.4-7.8-0.6
		c-0.6,0-1.1-0.1-1.7-0.1c-1.4-0.1-2.8-0.2-4.2-0.4l0,0c-0.5,0-1.1-0.1-1.6-0.1c-2.9-0.3-5.7-0.5-8.5-0.8c-1.4-0.2-2.8-0.3-4.1-0.4
		c-1-0.1-2.1-0.2-3.1-0.3c-0.6-0.1-1.2-0.1-1.8-0.2c-1.2-0.1-2.4-0.3-3.7-0.4c-1.2-0.1-2.5-0.3-3.7-0.5c-7.5-0.9-14.8-1.9-21.9-3
		c-5.5-0.8-11-1.8-16.3-2.7l0,0c-6.6-1.2-13.1-2.5-19.4-3.8c-0.1,0-0.1,0-0.2,0c-7.1-1.5-13.9-3.1-20.6-4.8
		c-2.2-0.5-4.3-1.1-6.4-1.7c-2-0.5-4.1-1.1-6.1-1.6c-3.1-0.9-6.2-1.8-9.2-2.7c-2.3-0.7-4.7-1.4-6.9-2.1c-11.8-3.7-23-7.8-33.5-12.2
		l-1.8,3.8l-0.9-4.9c-3.2-1.3-6.3-2.7-9.4-4.1c-3.9-1.8-7.7-3.6-11.4-5.5c-2.2-1.1-4.3-2.2-6.4-3.3c-0.8-0.4-1.6-0.9-2.4-1.3
		c-4.8-2.6-9.4-5.3-13.8-8c-9.5-5.8-18.2-12-26.3-18.6c-1.8-1.4-3.6-2.9-5.3-4.4c-4.6-3.9-8.9-8-13-12.2c-2.8-2.8-5.4-5.6-8-8.5
		c-1-1.1-2-2.3-2.9-3.4c-6.9-8.2-12.9-16.8-18.2-25.7c-2.3-4-4.5-8-6.5-12.1c-4.3-8.9-7.9-18.1-10.7-27.5c-1.2-4.1-2.3-8.1-3.2-12.3
		c-3.5-15.3-5.1-31.3-4.9-47.8c0-1.6,0-3.2,0.1-4.7l66.3-34.1l13-6.7l112.8-58l8.2-38.8l68.5-76l8.3-12.4l44.6-7.4l38.8,29.7
		l84.2,137.9l37.2,12.4l0,0l5,5.8l5.8,6.6l0,0l0,0l0,0l51.6,8.2l36.7,40.5l14.5-23.9l16-11.6l27.2,38.8l9.9,7.4l27.9,35.3l0,0
		l21.7,27.5L934.3,804.3z"/>
	<path class="st9" d="M1090.7,796.3c-2.8,3.6-6,7.1-9.7,10.6c-3,2.8-6.3,5.7-9.9,8.4c-9.3,7.2-20.6,14.2-33.7,20.8
		c-10.4,5.3-22,10.4-34.6,15.2c-6.8,2.6-13.9,5.2-21.4,7.6l0,0c-3.6,1.2-7.3,2.4-11.1,3.6c-9.8,3-20.1,6-30.8,8.8
		c-6.4,1.6-12.9,3.2-19.5,4.8c-26.3,6.1-54.9,11.4-85.5,15.8c-1.9,0.3-3.9,0.5-5.9,0.8c-0.8-2.3-1.5-4.9-2-7.7
		c-1.5-8.1-2-18.1-1.7-29.1c0-0.2,0-0.4,0-0.6c0.7-23.6,5-52,9.7-77.1c2.8-14.9,5.7-28.6,8.2-39.5l0,0c0.4-1.7,0.8-3.4,1.1-5
		c0.2-0.7,0.3-1.4,0.5-2.1c0.2-0.9,0.4-1.8,0.6-2.6c2.2-9.2,3.6-14.8,3.6-14.8l21.7,5.7l25.4,21.8l123.8,19.1l25.8,35.7h45.4V796.3z
		"/>
	<polygon class="st9" points="1159.4,872.3 1159.4,872.3 1157.9,871.5 1158.4,871.5 1158.4,871.5 	"/>
	<polygon class="st9" points="1252.3,870 1252.3,870.5 1252.1,870 1252.2,870 	"/>
	<path class="st10" d="M747.1,908.6l2.9,0.3L747.1,908.6z"/>
	<path class="st10" d="M834.4,891.8c-1.9,0.3-3.9,0.5-5.9,0.8c-4.8,0.6-9.6,1.3-14.4,1.9c-0.1,0-0.2,0-0.4,0l0,0
		c-10.3,1.3-20.8,2.5-31.4,3.5c-0.5,0.1-1,0.1-1.5,0.2c-3.4,0.3-6.8,0.7-10.3,1l0,0c-1.7,0.2-3.5,0.3-5.2,0.5
		c-1.6,0.2-3.2,0.3-4.8,0.4c-2.1,0.2-4.2,0.4-6.4,0.5c-3.6,0.3-7.2,0.6-10.9,0.8c-0.1,0-0.1,0-0.2,0l-0.3-0.5l0,0l-9.3-17l-0.2-0.4
		l-0.2-5.9l-0.1-1.5l-3.6-96.6L701.8,725l-6.5-26.4l-23.6-54.5l-7-24.8l0,0l0,0l21.4,16.5l0.8,19.8l57.2,28.1l-24.4,48.8l24.6,43.8
		l25.3,73.5l31.4,17.8l23.9-11.6l5.9-2.8l2.6,26.9L834.4,891.8z"/>
	<polygon class="st11" points="737.8,907.9 738.3,908.9 737.1,907.8 737,907.7 737.7,907.8 	"/>
	<path class="st11" d="M743.1,901.4c-2.8,0.2-5.7,0.4-8.6,0.6l0,0c-1.2,0.1-2.4,0.2-3.6,0.2c-3.5,0.2-7,0.4-10.5,0.6v3.6l-23.8-2.4
		l-21.8,3.3l0,0l-0.7-0.4l-3.8-2.1c-9.4,0.2-18.9,0.3-28.5,0.4l0,0c-6.3,0-12.7,0-19.2,0c-5.6,0-11.3-0.1-16.9-0.2l0,0
		c-3.5-0.1-7.1-0.1-10.7-0.2c-3.8-0.1-7.6-0.2-11.5-0.3c-2.9-0.1-5.9-0.2-8.9-0.3l0.9-9.5v-0.2v-0.2V894v-0.3l1.8-19.1l5.6-6.5l0,0
		l0,0l3-3.5l0.1-0.1l11.5-13.3l1.3-1.5c0,0,1.2-51.4,0-57.9c-1.2-6.2-22.9-35.4-25-38.1l-0.1-0.1v-0.1l0,0l-36.2-120.1l20.3-31.4
		l-24.1-29.7l-17.8-34.7l6.3-24.8l-7.5-28.1l-18.4-41.3l36.1,13.2l14.8,66l17,26.4l2.5,31.4l32.1,38.8l20.8,37.9l44.9,29.8
		l12.1,54.5l25.1,19L731.2,876l0.4,1.4l1.5,6.1l0.2,0.4l9.3,17l0,0L743.1,901.4z"/>
	<path class="st12" d="M599.1,791.8v57.9l-1.3,1.5l-11.5,13.3l-0.1,0.1l-3,3.5l0,0l0,0l-5.6,6.5l-1.8,19.1v0.3v0.3v0.2v0.2l-0.9,9.5
		c-3.5-0.1-7-0.3-10.5-0.4l0,0c-3.5-0.1-7-0.3-10.6-0.5c-8.8-0.4-17.6-0.9-26.4-1.5c-4.4-0.3-8.8-0.6-13.3-0.9
		c-1.1-0.1-2.1-0.1-3.2-0.2c-0.9-0.1-1.7-0.1-2.6-0.2l0,0c-0.1,0-0.2,0-0.4,0l0,0c-1.4-0.1-2.8-0.2-4.2-0.3l8.6-17.9l0,0l2.5-5.3
		l0,0l3.1-6.5l7.2-15l0,0l2.9-6l1.4-3l0.1-0.2l1.9-4l0.4-0.8l1.9-3.9l1.6-3.3l38.8-80.8l0,0v0.1l0.1,0.1L599.1,791.8z"/>
	<polygon class="st13" points="529.4,846.3 536,745.7 512,686.6 515.3,637.5 506.2,612.7 534,572.3 558.1,602 537.8,633.4 
		574,753.5 	"/>
	<path class="st14" d="M433.6,490.5l-26.4,28.1l-11.6,53.7l-3.7,23.6l0,0l-3.7,23.5l3.3,41.3l-20,49.6l-0.5,1.2l-0.5,1.3l-0.7,1.7
		l0,0l-5.1,12.7l-2.2,5.4l2.5,21.8l0,0l1,8.8l5.7,50.3l0,0l5.6,49.3l0,0l0.7,6.5l0.5,4.8l0,0l0,0l0.1,0.8l0.7,6.5
		c-2.2-0.5-4.3-1.1-6.4-1.7c-2-0.5-4.1-1.1-6.1-1.6c-3.1-0.9-6.2-1.8-9.2-2.7c-2.3-0.7-4.7-1.4-6.9-2.1c-11.8-3.7-23-7.8-33.5-12.2
		l-1.8,3.8l-0.9-4.9c-3.2-1.3-6.3-2.7-9.4-4.1c-3.9-1.8-7.7-3.6-11.4-5.5c-2.2-1.1-4.3-2.2-6.4-3.3c-0.8-0.4-1.6-0.9-2.4-1.3
		c-4.8-2.6-9.4-5.3-13.8-8c-9.5-5.8-18.2-12-26.3-18.6c-1.8-1.4-3.6-2.9-5.3-4.4c-4.6-3.9-8.9-8-13-12.2c-2.8-2.8-5.4-5.6-8-8.5
		c-1-1.1-2-2.3-2.9-3.4c-6.9-8.2-12.9-16.8-18.2-25.7l82.7-32.4l4.1-67.7l88.4-45.4l-4.5-31.2l-3.8-26.6l44.5-45.5L433.6,490.5z"/>
	<polygon class="st12" points="284.1,664.8 225.8,752.3 280,732.5 	"/>
	<path class="st10" d="M225.8,752.3l-35,0.4c-4.3-8.9-7.9-18.1-10.7-27.5L225.8,752.3z"/>
	<path class="st15" d="M284.1,664.8l-58.3,87.5l-45.7-27.1c-1.2-4.1-2.3-8.1-3.2-12.3l78.1-62.2L284.1,664.8z"/>
	<polygon class="st9" points="701.9,725 664.8,687.1 651.5,645.8 619.9,627.6 616.9,594.6 654,607 664.8,619.3 671.8,644.1 
		695.4,698.6 	"/>
	<polygon class="st9" points="870.4,741.5 820.8,678.8 837.3,725 	"/>
	<polygon class="st9" points="820.8,678.8 810.9,671.4 808.4,676.3 	"/>
	<polygon class="st9" points="767.6,644.1 774.6,644.9 779.9,652 810.9,671.4 783.7,632.6 	"/>
	<polygon class="st9" points="753.1,668.1 744.3,683.7 714.7,635.4 664.8,619.3 716.4,627.6 	"/>
	<polygon class="st9" points="616.9,594.6 595,581.4 574,552.9 571.9,538 552.1,514.1 532.7,456.7 	"/>
	<polygon class="st9" points="532.7,456.7 493.8,427 496.6,443.5 	"/>
	<polygon class="st9" points="449.3,434.4 482.3,441.8 493.8,427 	"/>
	<polygon class="st9" points="496.6,443.5 474.9,465.8 471.6,514.9 480.2,535.5 	"/>
	<polygon class="st9" points="433.6,490.5 465.4,456.7 433.6,473.6 407.1,518.6 	"/>
	<polygon class="st9" points="449.3,434.4 449.3,447.2 441,446.8 436.2,456.7 372.5,522.7 	"/>
	<polygon class="st9" points="368,588.1 251.4,619.6 364.2,561.5 	"/>
	<path class="st9" d="M251.4,619.6l-43.2,41.5l-36.2,4.1c0-1.6,0-3.2,0.1-4.7l0,0l66.3-34.1L251.4,619.6z"/>
	<polygon class="st16" points="480.2,535.5 506.2,612.7 476.5,598.7 465.4,544.2 471.6,514.9 	"/>
	<polygon class="st16" points="515,484.8 506.2,522.7 516.2,537.6 522.5,512.8 	"/>
	<polygon class="st16" points="465.4,456.7 474.9,465.8 471.6,514.9 444.8,478.6 	"/>
	<polygon class="st16" points="574,552.9 547.4,522.7 552.1,514.1 571.9,538 	"/>
	<polygon class="st16" points="482.3,441.8 449.3,456.7 449.3,434.4 	"/>
	<polygon class="st16" points="433.6,473.6 372.5,522.7 387.3,525.6 	"/>
	<polygon class="st9" points="465.4,544.2 410.9,581.6 410.9,702.7 465.4,632.6 476.5,598.7 	"/>
	<polygon class="st12" points="860,781.5 837.3,725 801,867.5 835.6,849.8 	"/>
	<path class="st14" d="M747.1,908.6l2.9,0.3L747.1,908.6z"/>
	<path class="st14" d="M782.3,898.1c-0.5,0.1-1,0.1-1.5,0.2c-3.4,0.3-6.8,0.7-10.3,1l0,0c-1.7,0.2-3.5,0.3-5.2,0.5
		c-1.6,0.2-3.2,0.3-4.8,0.4c-2.1,0.2-4.2,0.4-6.4,0.5c-3.6,0.3-7.2,0.6-10.9,0.8c-0.1,0-0.1,0-0.2,0l-0.3-0.5l0,0l-9.3-17l-0.2-0.4
		l-0.2-5.9l-0.1-1.5l-3.6-96.6l-27.5-54.5l42.4,51.2l25.3,73.5L782.3,898.1z"/>
	<polygon class="st16" points="512,686.6 474.9,650.7 507.9,746.9 493.4,833.6 517.8,870.5 529.4,846.3 536,745.7 	"/>
	<polygon class="st16" points="779.9,652 719.7,732.5 767.6,644.1 774.6,644.9 	"/>
	<polygon class="st16" points="808.4,676.3 789.3,705.5 798.8,663.8 810.9,671.4 	"/>
	<polygon class="st16" points="801,867.5 789.3,705.5 769.6,849.7 	"/>
	<polygon class="st14" points="476.5,598.7 474.9,650.7 410.9,702.7 465.4,632.6 	"/>
	<path class="st9" d="M467,896.8c-0.6-0.1-1.2-0.1-1.8-0.2c-1.2-0.1-2.4-0.3-3.7-0.4c-1.2-0.1-2.5-0.3-3.7-0.5
		c-7.5-0.9-14.8-1.9-21.9-3c-5.5-0.8-11-1.8-16.3-2.7l0,0l-4.6-25.9l-1.5-8.6l-7.1-39.9l-2.6-14.6l-0.8-4.8l0.5-6.5l1.7-20.8
		l0.2-2.4l0.1-0.7l5.3-63.2l13.9,73.7l0,0l1.7,9.2l1.5,4.1l13,35.8l12.1,33.2l11.9,32.8l0,0L467,896.8z"/>
	<path class="st8" d="M641.8,905.2c-6.3,0-12.7,0-19.2,0c-5.6,0-11.3-0.1-16.9-0.2l0,0c-3.5-0.1-7.1-0.1-10.7-0.2
		c-3.8-0.1-7.6-0.2-11.5-0.3c-2.9-0.1-5.9-0.2-8.9-0.3l0.9-9.5v-0.2v-0.2V894v-0.3l1.8-19.1l5.6-6.5l0,0l0,0l3-3.5l0.1-0.1
		l11.5-13.3l1.3-1.5l1.5,2l2.4,3l0,0l0.7,0.9l0.6,0.8l0.4,0.6l11.7,15.1l1.6,2.1L641.8,905.2z"/>
	<polygon class="st14" points="619.9,657.3 676.8,741.5 664.8,687.1 	"/>
	<polygon class="st14" points="517.8,870.5 507.9,746.9 493.4,833.6 	"/>
	<polygon class="st14" points="744.3,776.2 779.9,652 719.7,732.5 	"/>
	<path class="st17" d="M814.1,894.5c-0.1,0-0.2,0-0.4,0l0,0c-10.3,1.3-20.8,2.5-31.4,3.5c-0.5,0.1-1,0.1-1.5,0.2l-36.5-122
		l-24.6-43.7l60.2-80.5l0.7,116.8l20.4,98.7l13,26.9L814.1,894.5z"/>
	<polygon class="st17" points="820.8,908.3 813.9,909.3 820.4,907.5 	"/>
	<path class="st14" d="M939.4,871.2c-6.4,1.6-12.9,3.2-19.5,4.8c-26.3,6.1-54.9,11.4-85.5,15.8l-1.1-11.9l-2.6-26.9l4.8-3.2
		l24.5-68.4l41.7,47.2L939.4,871.2z"/>
	<polygon class="st14" points="870.4,741.5 948.8,808.7 956.7,845.9 860,781.5 837.3,725 	"/>
	<polygon class="st14" points="1252.3,870 1252.3,870.5 1252.1,870 1252.2,870 	"/>
	<path class="st14" d="M1045.2,796.3h45.4c-2.8,3.6-6,7.1-9.7,10.6c-3,2.8-6.3,5.7-9.9,8.4L1045.2,796.3z"/>
	<path class="st14" d="M1002.7,851.3c-6.8,2.6-13.9,5.2-21.4,7.6l0,0c-3.6,1.2-7.3,2.4-11.1,3.6l-13.5-16.6l36.3-4.6L1002.7,851.3z"
		/>
	<polygon class="st14" points="1159.4,872.3 1159.4,872.3 1157.9,871.5 1158.4,871.5 1158.4,871.5 	"/>
	<polygon class="st17" points="993.1,841.3 1019.5,760.6 948.8,808.7 956.7,845.9 	"/>
	<path class="st10" d="M970.3,862.5c-9.8,3-20.1,6-30.8,8.8l-37.6-42.6l-41.7-47.2l55.4,37l41.2,27.5L970.3,862.5z"/>
	<path class="st10" d="M1071,815.3c-9.3,7.2-20.6,14.2-33.7,20.8c-10.4,5.3-22,10.4-34.6,15.2l-9.7-9.9l26.4-80.7l25.8,35.7
		L1071,815.3z"/>
	<polygon class="st10" points="1159.4,872.3 1159.4,872.3 1157.9,871.5 1158.4,871.5 1158.4,871.5 	"/>
	<polygon class="st10" points="981.5,786.5 870.4,741.5 948.8,808.7 	"/>
	<path class="st18" d="M730.9,902.2c-3.5,0.2-7,0.4-10.5,0.6v3.6l-23.8-2.4l-21.8,3.3l0,0l-0.7-0.4l-3.8-2.1
		c-9.4,0.2-18.9,0.3-28.5,0.4l0,0l-23.9-31l-1.6-2.1L604.7,857l-0.4-0.6l-0.6-0.8l-0.7-0.9l0,0l-2.4-3l-1.5-2v-57.9l-25-38.2v-0.1
		l0,0l-36.2-120.1l20.3-31.4l15.4,10.7l-0.5,19.8l-0.6,23.5l44.6,101.6l31.5,28.8l11,42.1l33,35.2l2,2.1l2.7,2.9l9.3,10l7.3,7.8
		l2,1.8l4.8,4.3L730.9,902.2z"/>
	<polygon class="st18" points="573.4,612.7 596.2,632.6 635.7,716.8 572.9,632.6 	"/>
	<path class="st19" d="M747.1,908.6l2.9,0.3L747.1,908.6z"/>
	<path class="st19" d="M754.2,900.6c-3.6,0.3-7.2,0.6-10.9,0.8c-0.1,0-0.1,0-0.2,0l-0.3-0.5l0,0l-9.3-17l-0.2-0.4l-0.2-5.9l-0.1-1.5
		l-3.6-96.6L701.9,725l42.4,51.2l8.6,108l0.6,7.1l0.4,4.7L754.2,900.6z"/>
	<path class="st19" d="M919.9,876c-26.3,6.1-54.9,11.4-85.5,15.8l-1.1-11.9l-2.6-26.9v-0.8l3.8-74.1l2.7-53.1l5.5,13.6l0,0
		l17.2,42.8l33.7,53.2L919.9,876z"/>
	<path class="st19" d="M956.7,845.9l24.6,13c-3.6,1.2-7.3,2.4-11.1,3.6L956.7,845.9z"/>
	<path class="st19" d="M1045.2,796.3l-7.9,39.8c-10.4,5.3-22,10.4-34.6,15.2l-9.7-9.9L1045.2,796.3z"/>
	<polygon class="st19" points="1159.4,872.3 1159.4,872.3 1157.9,871.5 1158.4,871.5 1158.4,871.5 	"/>
	<polygon class="st19" points="948.8,808.7 870.4,741.5 965.4,797.4 	"/>
	<polygon class="st14" points="719.7,732.5 693,675.1 734.7,702.7 	"/>
	<path class="st19" d="M517.8,870.5l-3.1,6.5l0,0l-2.5,5.3l0,0l-8.6,17.9l0,0c-1.1-0.1-2.2-0.2-3.3-0.2c-0.5,0-0.9-0.1-1.4-0.1l0,0
		c-0.1,0-0.1,0-0.2,0c-0.2,0-0.5,0-0.7-0.1c-2.6-0.2-5.2-0.4-7.8-0.6c-0.6,0-1.1-0.1-1.7-0.1c-1.4-0.1-2.8-0.2-4.2-0.4l0,0
		c-0.5,0-1.1-0.1-1.6-0.1c-2.9-0.3-5.7-0.5-8.5-0.8c-1.4-0.2-2.8-0.3-4.1-0.4l-5.3-12l0,0l-11.7-26.5L441,825.7l-13-35.8l-1.5-4.1
		l2.7-5.7l0,0l31.7-66l13.8-63.1l33,96.2l-9.1,54.6l-0.6,3.7l-2.8,17v0.2l-1.6,9.5v0.1l-0.3,1.7l0.5,0.7l3.3,4.9l0,0l13.4,20.3
		l4.1,6.1l0,0l0.6,0.8L517.8,870.5z"/>
	<polygon class="st11" points="471.6,514.9 433.6,531 410.9,581.6 465.4,544.2 	"/>
	<polygon class="st14" points="410.9,702.7 380.4,759.3 391.2,836.7 378.5,874.1 394.8,876.9 410.9,863.8 415,864.1 403,796.2 	"/>
	<polygon class="st19" points="407.1,518.6 383.4,577.2 388.2,619.3 378.5,628.6 378.5,650.7 336.6,705.5 335.5,750.6 323.1,805.7 
		328.7,804.3 342.3,815.9 344.4,824.9 356.9,828.6 361.3,836.7 356.9,847.6 370,861.9 372.5,874.1 394.8,876.9 378.5,867.2 
		369,833.8 371.7,813.4 368.8,740.3 362.6,732.5 391.5,660.6 389.3,623.5 393.6,608.8 389.1,574.8 	"/>
	<polygon class="st20" points="532.7,456.7 558.1,512.7 616.9,594.6 	"/>
	<polygon class="st20" points="616.9,594.6 630.4,615.7 646.9,619.3 652.2,632.5 659.4,632.6 676.8,680.5 701.9,725 695.4,698.6 
		671.8,644.1 664.8,619.3 654,607 	"/>
	<polygon class="st20" points="810.9,671.4 779.9,652 774.6,644.9 783.7,632.6 	"/>
	<polygon class="st20" points="1019.5,760.6 981.5,786.5 895.7,741.5 	"/>
	<polygon class="st20" points="848.7,714.1 840.2,714.1 820.8,678.8 	"/>
	<polygon class="st20" points="895.7,741.5 877.3,734.2 848.7,714.1 870.4,719.8 	"/>
	<polygon class="st20" points="810.9,671.4 796.6,710.2 801,867.5 789.3,705.5 	"/>
	<polygon class="st20" points="744.3,683.7 714.7,635.4 664.8,619.3 716.4,627.6 753.1,668.1 	"/>
	<polygon class="st20" points="1252.3,870 1252.3,870.5 1252.2,870 	"/>
	<path class="st20" d="M1079.9,806l1,0.9c-3,2.8-6.3,5.7-9.9,8.4l-25.8-19L1079.9,806z"/>
	<polygon class="st20" points="1159.4,872.3 1159.4,872.3 1157.9,871.5 1158.4,871.5 1158.4,871.5 	"/>
	<polygon class="st20" points="1019.5,760.6 993.1,814.2 956.7,845.9 976.4,814.2 	"/>
	<polygon class="st20" points="837.3,725 897,779.5 956.7,845.9 875.8,775.1 	"/>
	<polygon class="st20" points="733.3,883.6 699.5,810.9 688.1,760.6 654.4,737.8 619.9,657.3 676.8,741.5 701.9,760.5 	"/>
	<polygon class="st20" points="496.6,443.5 517.8,471.7 529,511.2 526.1,535.5 542.4,572.3 558.1,602 534,572.3 516.2,537.6 
		522.5,512.8 514.4,490.5 	"/>
	<polygon class="st20" points="471.6,514.9 476.5,557.7 506.2,612.7 476.5,598.7 465.4,544.2 	"/>
	<polygon class="st20" points="493.8,427 485.8,449 449.3,456.7 482.3,441.8 	"/>
	<polygon class="st21" points="532.7,456.7 501.8,438.4 493.8,427 	"/>
	<polygon class="st20" points="433.6,566 410.9,702.7 410.9,581.6 	"/>
	<polygon class="st20" points="474.9,650.7 506.2,708.5 507.9,746.9 	"/>
	<polygon class="st20" points="372.5,522.7 372.5,544.2 364.2,561.5 	"/>
	<path class="st8" d="M564.4,874l-4.4,3.3l-2.2,1.7l-2.6,1.9l-6.7,5l-3.9,3l-17.3,13c-4.4-0.3-8.8-0.6-13.3-0.9
		c-1.1-0.1-2.1-0.1-3.2-0.2c-0.9-0.1-1.7-0.1-2.6-0.2l0,0c-0.1,0-0.2,0-0.4,0l0,0c-1.4-0.1-2.8-0.2-4.2-0.3l0,0
		c-1.1-0.1-2.2-0.2-3.3-0.2c-0.5,0-0.9-0.1-1.4-0.1l0,0c-0.1,0-0.1,0-0.2,0c-0.2,0-0.5,0-0.7-0.1c-2.6-0.2-5.2-0.4-7.8-0.6
		c-0.6,0-1.1-0.1-1.7-0.1c-1.4-0.1-2.8-0.2-4.2-0.4l0,0c-0.5,0-1.1-0.1-1.6-0.1c-2.9-0.3-5.7-0.5-8.5-0.8c-1.4-0.2-2.8-0.3-4.1-0.4
		c-1-0.1-2.1-0.2-3.1-0.3c-0.6-0.1-1.2-0.1-1.8-0.2c-1.2-0.1-2.4-0.3-3.7-0.4c-1.2-0.1-2.5-0.3-3.7-0.5c-7.5-0.9-14.8-1.9-21.9-3
		c-5.5-0.8-11-1.8-16.3-2.7l0,0c-6.6-1.2-13.1-2.5-19.4-3.8c-0.1,0-0.1,0-0.2,0c-7.1-1.5-13.9-3.1-20.6-4.8
		c-2.2-0.5-4.3-1.1-6.4-1.7c-2-0.5-4.1-1.1-6.1-1.6c-3.1-0.9-6.2-1.8-9.2-2.7c-2.3-0.7-4.7-1.4-6.9-2.1c-11.8-3.7-23-7.8-33.5-12.2
		l-1.8,3.8l-0.9-4.9c-3.2-1.3-6.3-2.7-9.4-4.1c-3.9-1.8-7.7-3.6-11.4-5.5c-2.2-1.1-4.3-2.2-6.4-3.3c-0.8-0.4-1.6-0.9-2.4-1.3
		c-4.8-2.6-9.4-5.3-13.8-8c-9.5-5.8-18.2-12-26.3-18.6c-1.8-1.4-3.6-2.9-5.3-4.4c-4.6-3.9-8.9-8-13-12.2c-2.8-2.8-5.4-5.6-8-8.5
		c-1-1.1-2-2.3-2.9-3.4l14-7.2l55.3-28.5l4-19l33.6-37.3l4.1-6.1l21.9-3.6l0.7,0.5l18.4,14.1l4.1,6.8l18.8,30.8l15.3,25l3.1,5.1
		l16.1,5.4l0,0l2.1,0.7l0,0l2.4,2.7l0,0l0.1,0.1l2.8,3.2l0,0l25.3,4l18,19.9l7.1-11.7l7.9-5.7l8.3,11.8l5.1,7.2l4.9,3.6l4.9,6.2
		l8.8,11.1l7.5,9.5l0,0l1.9,2.3l1.3,1.7L564.4,874z"/>
	<polygon class="st9" points="737.8,907.9 738.3,908.9 737.1,907.8 737,907.7 737.7,907.8 	"/>
	<path class="st9" d="M747.1,908.6l2.9,0.3L747.1,908.6z"/>
	<path class="st9" d="M770.5,899.2c-1.7,0.2-3.5,0.3-5.2,0.5c-1.6,0.2-3.2,0.3-4.8,0.4c-2.1,0.2-4.2,0.4-6.4,0.5
		c-3.6,0.3-7.2,0.6-10.9,0.8c-0.1,0-0.1,0-0.2,0c-2.8,0.2-5.7,0.4-8.6,0.6l0,0c-1.2,0.1-2.4,0.2-3.6,0.2c-3.5,0.2-7,0.4-10.5,0.6
		v3.6l-23.8-2.4l-21.8,3.3l0,0l-0.7-0.4l-3.8-2.1c-9.4,0.2-18.9,0.3-28.5,0.4l0,0c-6.3,0-12.7,0-19.2,0c-5.6,0-11.3-0.1-16.9-0.2
		l0,0c-3.5-0.1-7.1-0.1-10.7-0.2c-3.8-0.1-7.6-0.2-11.5-0.3c-2.9-0.1-5.9-0.2-8.9-0.3c-3.5-0.1-7-0.3-10.5-0.4l0,0
		c-3.5-0.1-7-0.3-10.6-0.5c-8.8-0.4-17.6-0.9-26.4-1.5c-4.4-0.3-8.8-0.6-13.3-0.9c-1.1-0.1-2.1-0.1-3.2-0.2c0-0.5,0-1,0-1.4V899
		c0.2-5.2,0.7-10.9,1.4-16.6l0,0c0.7-5.5,1.6-11.2,2.5-16.6l0,0c0.3-1.6,0.6-3.1,0.8-4.6c0.4-1.9,0.7-3.8,1.1-5.7l0,0l0,0
		c1-5.1,2-9.7,2.9-13.6c0.2-0.9,0.4-1.7,0.6-2.4c0.1-0.4,0.2-0.7,0.2-1c0.1-0.5,0.2-0.9,0.3-1.3c1.1-4.5,1.8-7.3,1.8-7.3l8,2.1
		l2.7,0.7l2.1,1.8l10.3,8.8l52.3,8.1l2.8,0.4l5.6,0.9l12.6,17.5h31.6l23.8,14.1L692,864l3.3-3.6l18,9.8l6.8,6.1H743l9.6,8.1
		L770.5,899.2z"/>
	<path class="st10" d="M488.4,898.9c-1.4-0.1-2.8-0.2-4.2-0.4l0,0c-0.5,0-1.1-0.1-1.6-0.1c-2.9-0.3-5.7-0.5-8.5-0.8
		c-1.4-0.2-2.8-0.3-4.1-0.4c-1-0.1-2.1-0.2-3.1-0.3c-0.6-0.1-1.2-0.1-1.8-0.2l-0.2-5.2l0,0l-0.2-6.2l0,0l-0.9-23.4l-13.5-26.7
		l-3.2-13l-11.6-26.7l-3.4-12.2l0,0l0,0l10.5,8.1l0.4,9.7l28.1,13.8l-4.7,9.3l-7.4,14.6l12.1,21.5l12.4,36L488.4,898.9z"/>
	<path class="st10" d="M513.9,900.9c-1.1-0.1-2.1-0.1-3.2-0.2c-0.9-0.1-1.7-0.1-2.6-0.2l2.6-1.3l2.9-1.4L513.9,900.9z"/>
	<path class="st11" d="M400,867.8c-0.6-3-11.2-17.3-12.2-18.7l-0.1-0.1l-0.3-1l0,0l-16.5-54.6l-1-3.3l0.8-1.3l9.1-14.1l-10.2-12.6
		l-1.6-2l-3-5.9l0,0l-5.7-11.1l3.1-12.2l-3.7-13.8l-9-20.2l17.7,6.5l2.5,11l0,0l4.8,21.4l8.4,13l0.4,5l0.8,10.4l15.8,19l3.6,6.6
		l6.6,12l22,14.6l5.9,26.7l12.3,9.3l11.1,43.7c-1.2-0.1-2.5-0.3-3.7-0.5c-7.5-0.9-14.8-1.9-21.9-3c-5.5-0.8-11-1.8-16.3-2.7l0,0
		c-6.6-1.2-13.1-2.5-19.4-3.8c0.1-4.7,0.1-10,0.1-13.7l0,0C400.2,870.2,400.1,868.5,400,867.8z"/>
	<path class="st12" d="M400,867.8v18.3c-7.1-1.5-13.9-3.1-20.6-4.8c-2.2-0.5-4.3-1.1-6.4-1.7l2.5-5.3l2.5-5.2l0.9-1.8l0,0l6.6-13.8
		l0,0l2.1-4.5l0.1,0.1L400,867.8z"/>
	<path class="st13" d="M387.6,849l-2.1,4.5l0,0l-6.6,13.8l0,0l-0.9,1.8l-2.5,5.2l-2.5,5.3c-2-0.5-4.1-1.1-6.1-1.6l1.2-18.3l0.9-14.6
		l-11.8-29l1.6-24.1l-4.4-12.1L366,763l2-2.9l1.6,2l10.2,12.6l-9.1,14.1l-0.8,1.3l1,3.3l16.5,54.6l0,0L387.6,849z"/>
	<path class="st14" d="M318.8,720l-13,13.8l-5.7,26.3l-1.8,11.6l-1.8,11.5l1.6,20.3l-14.2,35.2l0.8,6.9c-4.8-2.6-9.4-5.3-13.8-8
		c-9.5-5.8-18.2-12-26.3-18.6l0.8-13.5l43.4-22.3l-2.2-15.3l-1.9-13l21.8-22.3L318.8,720z"/>
	<path class="st12" d="M245.4,805.5l-0.8,13.5c-1.8-1.4-3.6-2.9-5.3-4.4L245.4,805.5z"/>
	<path class="st15" d="M245.4,805.5l-6.1,9.1c-4.6-3.9-8.9-8-13-12.2l4.8-3.8L245.4,805.5z"/>
	<polygon class="st9" points="450.4,835.1 432.2,816.4 425.7,796.2 410.2,787.3 408.7,771.1 426.9,777.2 432.2,783.2 435.6,795.4 
		447.2,822.1 	"/>
	<polygon class="st9" points="533,843.2 508.7,812.4 516.8,835.1 	"/>
	<polygon class="st9" points="508.7,812.4 503.9,808.7 502.7,811.2 	"/>
	<polygon class="st9" points="482.6,795.4 486,795.8 488.7,799.2 503.9,808.7 490.5,789.7 	"/>
	<polygon class="st9" points="475.5,807.1 471.2,814.8 456.7,791.1 432.2,783.2 457.5,787.3 	"/>
	<polygon class="st9" points="408.7,771.1 397.9,764.6 387.6,750.6 386.6,743.3 376.9,731.6 367.4,703.4 	"/>
	<polygon class="st9" points="367.4,703.4 348.3,688.8 349.7,696.9 	"/>
	<polygon class="st9" points="326.5,692.5 342.7,696.1 348.3,688.8 	"/>
	<polygon class="st9" points="349.7,696.9 339,707.9 337.4,732 341.6,742.1 	"/>
	<polygon class="st9" points="318.8,720 334.4,703.4 318.8,711.7 305.8,733.8 	"/>
	<polygon class="st9" points="326.5,692.5 326.5,698.8 322.4,698.6 320.1,703.4 288.8,735.8 	"/>
	<polygon class="st9" points="286.6,767.9 229.4,783.3 284.7,754.9 	"/>
	<path class="st9" d="M229.4,783.3l-11.1,10.6c-1-1.1-2-2.3-2.9-3.4L229.4,783.3z"/>
	<polygon class="st16" points="341.6,742.1 354.4,780 339.8,773.1 334.4,746.4 337.4,732 	"/>
	<polygon class="st16" points="358.7,717.2 354.4,735.8 359.3,743.1 362.4,731 	"/>
	<polygon class="st16" points="334.4,703.4 339,707.9 337.4,732 324.3,714.2 	"/>
	<polygon class="st16" points="387.6,750.6 374.6,735.8 376.9,731.6 386.6,743.3 	"/>
	<polygon class="st16" points="342.7,696.1 326.5,703.4 326.5,692.5 	"/>
	<polygon class="st16" points="318.8,711.7 288.8,735.8 296.1,737.3 	"/>
	<polygon class="st9" points="334.4,746.4 307.6,764.7 307.6,824.1 334.4,789.7 339.8,773.1 	"/>
	<path class="st12" d="M528,862.8l-12,33.5l-2.3,1.2l-2.9,1.5l-3,1.5l0,0c-1.4-0.1-2.8-0.2-4.2-0.3l0,0c-1.1-0.1-2.2-0.2-3.3-0.2
		l10.3-40.4l4.8-18.9l1.4-5.6l2.7,6.7l5.5,13.7l0,0L528,862.8z"/>
	<path class="st14" d="M484.2,898.6c-0.5,0-1.1-0.1-1.6-0.1c-2.9-0.3-5.7-0.5-8.5-0.8c-1.4-0.2-2.8-0.3-4.1-0.4
		c-1-0.1-2.1-0.2-3.1-0.3c-0.6-0.1-1.2-0.1-1.8-0.2l-0.2-5.2l0,0l-0.2-6.2l0,0l-0.9-23.4l-13.5-26.7l20.8,25.1l12.4,36L484.2,898.6z
		"/>
	<path class="st16" d="M369,845.2l-0.9,14.6l-1.2,18.3c-3.1-0.9-6.2-1.8-9.2-2.7c-2.3-0.7-4.7-1.4-6.9-2.1l4.6-27.4l-6.8-19.7
		l-9.5-27.5l18.2,17.6L369,845.2z"/>
	<polygon class="st16" points="488.7,799.2 459.1,838.7 482.6,795.4 486,795.8 	"/>
	<polygon class="st16" points="502.7,811.2 493.2,825.5 497.9,805 503.9,808.7 	"/>
	<path class="st16" d="M498.6,899.8c-0.2,0-0.5,0-0.7-0.1c-2.6-0.2-5.2-0.4-7.8-0.6c-0.6,0-1.1-0.1-1.7-0.1l-4.8-2.7l5.4-39.7l0,0
		l4.2-31.1l0.5,6.4v0.1l0.2,2.4L498.6,899.8z"/>
	<polygon class="st14" points="339.8,773.1 339,798.6 307.6,824.1 334.4,789.7 	"/>
	<path class="st9" d="M314.4,859.9c-3.2-1.3-6.3-2.7-9.4-4.1l2.6-31.6L314.4,859.9z"/>
	<polygon class="st14" points="410.2,801.8 438.1,843.2 432.2,816.4 	"/>
	<path class="st14" d="M357.6,875.4c-2.3-0.7-4.7-1.4-6.9-2.1l4.6-27.4L357.6,875.4z"/>
	<polygon class="st14" points="471.2,860.2 488.7,799.2 459.1,838.7 	"/>
	<path class="st17" d="M497.9,899.7c-2.6-0.2-5.2-0.4-7.8-0.6c-0.6,0-1.1-0.1-1.7-0.1c-1.4-0.1-2.8-0.2-4.2-0.4l0,0
		c-0.5,0-1.1-0.1-1.6-0.1l-11.4-38.2l-12.1-21.5l29.6-39.5l0.3,57.3l0,0L497.9,899.7z"/>
	<path class="st14" d="M564.2,903.8c-3.5-0.1-7-0.3-10.6-0.5c-8.8-0.4-17.6-0.9-26.4-1.5c-4.4-0.3-8.8-0.6-13.3-0.9l-0.3-3.1
		l2.4-1.6l12-33.5l20.5,23.2L564.2,903.8z"/>
	<polygon class="st14" points="533,843.2 571.5,876.1 575.4,894.4 528,862.8 516.8,835.1 	"/>
	<polygon class="st14" points="720.3,906.2 720.4,906.2 720.4,906.4 696.6,904 	"/>
	<polygon class="st14" points="737.8,907.9 738.3,908.9 737.1,907.8 737,907.7 737.7,907.8 	"/>
	<polygon class="st14" points="750,908.9 747.1,908.6 747.1,908.6 	"/>
	<polygon class="st14" points="618.8,870 651.9,894.4 696.6,904 674.2,884.1 650.4,870 	"/>
	<path class="st14" d="M605.7,905c-3.5-0.1-7.1-0.1-10.7-0.2c-3.8-0.1-7.6-0.2-11.5-0.3l-7.9-9.8l-0.3-0.3h0.3l17.5-2.2L605.7,905z"
		/>
	<polygon class="st14" points="696.6,904 674.8,907.3 674.8,907.3 674.1,906.9 674.3,906.9 	"/>
	<polygon class="st14" points="737.7,907.8 737.8,907.9 737.1,907.8 737,907.7 	"/>
	<path class="st14" d="M742.9,900.9l0.4,0.5c-0.1,0-0.1,0-0.2,0c-2.8,0.2-5.7,0.4-8.6,0.6l0,0c-1.2,0.1-2.4,0.2-3.6,0.2
		c-3.5,0.2-7,0.4-10.5,0.6v-26.7L742.9,900.9L742.9,900.9z"/>
	<polygon class="st17" points="593.2,892.1 606.2,852.5 571.5,876.1 575.4,894.4 	"/>
	<path class="st10" d="M583.6,904.5c-2.9-0.1-5.9-0.2-8.9-0.3c-3.5-0.1-7-0.3-10.5-0.4l0,0L548.4,886L528,862.8l27.2,18.1l20.2,13.5
		l0.3,0.3L583.6,904.5z"/>
	<path class="st10" d="M696.6,904l-21.8,3.3l0,0l-0.7-0.4l-3.8-2.1c-9.4,0.2-18.9,0.3-28.5,0.4l0,0c-6.3,0-12.7,0-19.2,0
		c-5.6,0-11.3-0.1-16.9-0.2l0,0l-12.5-12.9l11.5-35.1l1.5-4.5l12.6,17.5l33.1,24.4l10,2.2l34.4,7.5l0,0L696.6,904z"/>
	<polygon class="st10" points="587.5,865.2 533,843.2 571.5,876.1 	"/>
	<path class="st10" d="M760.6,900.1c-2.1,0.2-4.2,0.4-6.4,0.5c-3.6,0.3-7.2,0.6-10.9,0.8l-0.4-0.5l0,0l-22.4-24.8l13.1,7.8
		l20.3,12.1L760.6,900.1z"/>
	<polygon class="st10" points="696.6,904 700.5,889.9 697,868.8 695.6,860.2 706.4,878.8 709.5,884.3 718.7,902.9 720.3,906.2 
		720.4,906.4 	"/>
	<path class="st18" d="M419.6,890c-6.6-1.2-13.1-2.5-19.4-3.8c-0.1,0-0.1,0-0.2,0v-18.4l-12.3-18.7l-0.1-0.1l-0.3-1l0,0l-16.5-54.6
		l-1-3.3l0.8-1.3l9.1-14.1l3.1,2.1l4.5,3.1l-0.3,9.7l-0.3,11.6l21.9,49.8l4.8,4.4l10.6,9.7l5.4,20.7l6.4,6.8
		C430.4,891.9,424.9,890.9,419.6,890L419.6,890z"/>
	<polygon class="st18" points="387.4,780 398.5,789.7 417.9,831 387.1,789.7 	"/>
	<path class="st19" d="M474.2,897.6c-1.4-0.2-2.8-0.3-4.1-0.4c-1-0.1-2.1-0.2-3.1-0.3c-0.6-0.1-1.2-0.1-1.8-0.2l-0.2-5.2l0,0
		l-0.2-6.2l0,0l-0.9-23.4l-13.5-26.7l20.8,25.1L474.2,897.6z"/>
	<path class="st19" d="M553.6,903.3c-8.8-0.4-17.6-0.9-26.4-1.5c-4.4-0.3-8.8-0.6-13.3-0.9l-0.3-3.1v-0.4l1.1-20.5l0,0l0.5-10.5
		l0.3-5.5l0.6-11.9l0,0l0.7-14.1l2.7,6.7l5.5,13.7l0,0l2.9,7.3l16.5,26.1L553.6,903.3z"/>
	<path class="st19" d="M575.7,894.5l19.4,10.2c-3.8-0.1-7.6-0.2-11.5-0.3l-7.9-9.8l-0.3-0.3L575.7,894.5z"/>
	<path class="st19" d="M622.7,905.2c-5.6,0-11.3-0.1-16.9-0.2l0,0l-12.5-12.9l23.1-20l2.4-2.1l-0.8,4.2l-4.4,22L622.7,905.2z"/>
	<polygon class="st19" points="696.6,904 674.8,907.3 674.8,907.3 674.1,906.9 670.3,904.8 651.9,894.4 657,892.4 666.4,888.9 
		696.5,904 	"/>
	<path class="st19" d="M720.4,876.1l14.1,25.9c-1.2,0.1-2.4,0.2-3.6,0.2c-3.5,0.2-7,0.4-10.5,0.6V876.1z"/>
	<polygon class="st19" points="571.5,876.1 533,843.2 579.6,870.6 	"/>
	<polygon class="st14" points="459.1,838.7 446,810.6 466.5,824.1 	"/>
	<path class="st19" d="M350.6,873.2c-11.8-3.7-23-7.8-33.5-12.2l15.1-31.5l4.1-18.8l2.7-12.2l9.5,27.5l6.8,19.7L350.6,873.2z"/>
	<polygon class="st11" points="337.4,732 318.8,739.9 307.6,764.7 334.4,746.4 	"/>
	<path class="st14" d="M307.6,824.1l-2.6,31.6c-3.9-1.8-7.7-3.6-11.4-5.5L307.6,824.1z"/>
	<path class="st19" d="M299.1,778.1l-2.1,7.2l1,18.2l-14.2,35.2l3.1,3.9l0.2,4.4c-0.8-0.4-1.6-0.9-2.4-1.3c-4.8-2.6-9.4-5.3-13.8-8
		l0.3-12.1l20.5-26.9v-10.9l4.7-4.5l-2.3-20.7l11.6-28.7l-8.8,27.5l1.3,10.3L299.1,778.1z"/>
	<polygon class="st20" points="367.4,703.4 379.9,730.9 408.7,771.1 	"/>
	<polygon class="st20" points="408.7,771.1 415.3,781.4 423.4,783.2 426,789.7 429.5,789.7 438.1,813.2 450.4,835.1 447.2,822.1 
		435.6,795.4 432.2,783.2 426.9,777.2 	"/>
	<polygon class="st20" points="503.9,808.7 488.7,799.2 486,795.8 490.5,789.7 	"/>
	<polygon class="st20" points="606.2,852.5 587.5,865.2 545.5,843.2 	"/>
	<polygon class="st20" points="522.4,829.7 518.2,829.7 508.7,812.4 	"/>
	<polygon class="st20" points="545.5,843.2 536.4,839.6 522.4,829.7 533,832.5 	"/>
	<path class="st20" d="M497.1,839.3l1.7,60.6c-0.1,0-0.1,0-0.2,0l-4.8-65.5l-0.2-2.4l0,0l-0.5-6.4l2.1-3.3l8.5-13.5l-7,19
		L497.1,839.3L497.1,839.3z"/>
	<polygon class="st20" points="471.2,814.8 456.7,791.1 432.2,783.2 457.5,787.3 475.5,807.1 	"/>
	<polygon class="st20" points="695.6,860.2 690.5,883.3 683.2,892.1 674.2,884.1 	"/>
	<polygon class="st20" points="720.4,876.1 720.4,906.4 720.3,906.2 719.5,902.9 715.6,888.4 714.3,883.3 714.3,875 695.6,860.2 
		713.6,870 	"/>
	<path class="st20" d="M752.9,884.3l17.7,14.9c-1.7,0.2-3.5,0.3-5.2,0.5l-11.9-8.3l-8.1-5.6l-2.6-6.9l-9.7-1.2l-1.3-0.2l-1.4-0.2
		l-10-1.2h22.9L752.9,884.3z"/>
	<polygon class="st20" points="674.8,907.3 674.1,906.9 670.3,904.8 651.9,894.4 618.8,870 635.8,874.8 657,892.4 661.9,896.5 
		671.7,904.8 674.3,906.9 	"/>
	<polygon class="st20" points="606.2,852.5 593.2,878.8 575.4,894.4 585,878.8 	"/>
	<polygon class="st20" points="516.8,835.1 546.1,861.8 575.4,894.4 535.7,859.7 	"/>
	<path class="st20" d="M450.4,852.5l11.1,43.7c-1.2-0.1-2.5-0.3-3.7-0.5l-8.6-18.5l-5.6-24.7l-16.5-11.2l-16.9-39.5l27.9,41.3
		L450.4,852.5z"/>
	<polygon class="st20" points="349.7,696.9 360.1,710.8 365.6,730.2 364.1,742.1 372.2,760.1 379.8,774.7 368,760.1 359.3,743.1 
		362.4,731 358.4,720 	"/>
	<polygon class="st20" points="337.4,732 339.8,753 354.4,780 339.8,773.1 334.4,746.4 	"/>
	<polygon class="st20" points="348.3,688.8 344.4,699.7 326.5,703.4 342.7,696.1 	"/>
	<polygon class="st21" points="367.4,703.4 352.2,694.5 348.3,688.8 	"/>
	<polygon class="st20" points="318.8,757.1 307.6,824.1 307.6,764.7 	"/>
	<polygon class="st20" points="339,798.6 354.4,827 355.2,845.8 	"/>
	<polygon class="st20" points="288.8,735.8 288.8,746.4 284.7,754.9 	"/>
	<g>
		<polygon class="st2" points="351.1,761.4 305.1,770.6 265.1,764.5 189.5,781.9 131.5,770.6 111.3,749.7 155.1,736.8 181.7,741.2 
			230,736.8 301.1,755.9 		"/>
		<polygon class="st3" points="200.6,768.9 265.1,764.5 189.5,781.9 131.5,770.6 111.3,749.7 147.4,763.1 		"/>
		<polygon class="st3" points="351.1,761.4 305.1,770.6 265.1,764.5 293.5,761.6 		"/>
		<polygon class="st4" points="301.1,755.9 265.1,759.3 222.1,752.9 267.8,746.9 		"/>
	</g>
	<g>
		<polygon class="st2" points="219.2,875.6 258.5,885.1 323.9,899.3 374.2,887.7 417.4,887.7 462.7,870.1 434.1,839 341.3,820 
			281.7,848.4 242.1,854.4 		"/>
		<polygon class="st4" points="219.2,875.6 258.5,885.1 323.9,899.3 374.2,887.7 406.8,887.7 421.5,866.4 369.2,854.8 327.2,859.7 
			283.6,873.9 242.1,854.4 		"/>
		<polygon class="st3" points="421.5,866.4 374.2,887.7 417.4,887.7 462.7,870.1 		"/>
		<polygon class="st3" points="219.2,875.6 258.5,885.1 323.9,899.3 374.2,887.7 327.2,877.1 281.9,882.2 254.5,866.4 		"/>
		<polygon class="st5" points="327.2,859.7 285.5,854.4 242.1,854.4 283.6,873.9 		"/>
		<polygon class="st5" points="421.5,839 383.6,839 370.3,848.4 395.9,851.5 		"/>
	</g>
	<g>
		<g>
			
				<image style="overflow:visible;opacity:0.93;enable-background:new    ;" width="2242" height="2242" xlink:href="DB3D1532.png"  transform="matrix(0.2394 0 0 0.2394 437.5208 15.6885)">
			</image>
			<g>
				<path class="st2" d="M785.1,283.8c0,10.6-2.1,20.7-5.8,30c-11.8,28.9-40.2,49.3-73.3,49.3c-4.3,0-8.5-0.3-12.6-1
					c-11.2-1.8-21.6-5.9-30.8-11.9c-17.3-11.3-29.8-29.1-34.2-50c-1.1-5.2-1.7-10.7-1.7-16.3c0-17.8,5.9-34.3,15.8-47.6
					c14.4-19.2,37.4-31.7,63.3-31.7C749.5,204.7,785,240.1,785.1,283.8z"/>
			</g>
		</g>
		<path class="st3" d="M662.6,350.3c-17.3-11.3-29.8-29.1-34.2-50l27.8,19L662.6,350.3z"/>
		<path class="st4" d="M717.5,339l-24.2,23.1c-11.2-1.8-21.6-5.9-30.8-11.9l-6.4-31L717.5,339z"/>
		<path class="st5" d="M779.2,313.8c-11.8,28.9-40.2,49.3-73.3,49.3c-4.3,0-8.5-0.3-12.6-1l24.2-23.1L779.2,313.8z"/>
		<path class="st3" d="M645.4,257.9L626.7,284c0-17.8,5.9-34.3,15.8-47.6l0,0L645.4,257.9z"/>
		<polygon class="st5" points="743.3,227.6 750.8,227.6 763.3,236.3 746.1,232 		"/>
		<polygon class="st5" points="750.8,248 743.4,278.7 775,283.9 779.2,274.9 775.4,257.3 		"/>
		<polygon class="st5" points="682.1,223 690.4,217.4 695.1,217.4 		"/>
		<polygon class="st4" points="705.8,245.3 720.2,256.9 715.5,269.4 708.6,262.9 		"/>
		<polygon class="st3" points="667.3,284 682.1,280.1 695.1,290.3 		"/>
	</g>
</g>
<g id="Layer_2_1_">
	<path class="st22" d="M1021.6,800.7c0,2.8-0.2,5.8-0.5,8.8c-1.4,15.8-6.2,35.2-18.5,55.1c-2.4,3.9-5.1,7.8-8.2,11.8
		c-2.1,2.7-4.3,5.4-6.7,8c-47.8,53.8-125.5,10.1-181.5,40.1c-51.6,27.6-183.1,8.7-281.9-33.8c-8.4-3.6-16.5-7.4-24.3-11.3
		c-100.1-50.2-83.3-153.7-83.3-153.7l2.7-1.7l51.8-33.4l218.6-140.8c0,0-21.6,163.6,107.1,223.3c91.7,42.5,165.3,24.5,200.1,10.6
		C1008.9,778.9,1021.9,787.8,1021.6,800.7z"/>
	<path class="st23" d="M931.3,877.6c29-3.8,52.5-8.2,71.4-13c-4.1,6.6-9,13.2-14.8,19.8c-47.8,53.8-125.5,10.1-181.5,40.1
		c-51.6,27.6-183.1,8.7-281.9-33.8c-23.1-16-41-32-51.2-47.4c-27.6-41.9-44.4-86.8-53.9-119.3c-8.2-28-11.2-46.9-11.2-46.9l63,13.6
		l137.4,29.6C608.6,720.2,781.2,897.1,931.3,877.6z"/>
	
		<linearGradient id="SVGID_4_" gradientUnits="userSpaceOnUse" x1="592.2037" y1="304.0833" x2="592.2037" y2="822.8812" gradientTransform="matrix(1 0 0 -1 0 1101.6171)">
		<stop  offset="0.3568" style="stop-color:#131735"/>
		<stop  offset="1" style="stop-color:#342B52"/>
	</linearGradient>
	<path class="st24" d="M775,708.2c-3.3,7.5-7.4,14.4-12.1,20.9c-66.8,90.6-268.1,84.1-342.3,22.1c-79.5-66.5,61.3-264.8,70.2-298.8
		s1.6-64.1,1.6-64.1s-26.6-6.6-45.6-28.8c-4.8-5.6-9.2-12.3-12.5-20.1c-13.2-31,25.5-65.1,71.6-60.2c11,1.2,22.4,4.5,33.6,10.7
		c58.4,31.9,61.4,29.9,62.2,43.6s14.5,12.8,15.8,27.6c0.3,3.2-0.6,7.7-1.5,13.2l0,0c-3.3,20.1-7,53.6,42.5,84.3
		C721.6,497.7,824.6,596.1,775,708.2z"/>
	<path class="st25" d="M600.7,403.8c0,0-17.3,30.7,25.4,67.2s118.8,119.9,114.3,183.7s-90.5,66.5-103.5,65.8
		S480.3,612.8,491.3,521.2s23.4-104.3,23.4-104.3L600.7,403.8z"/>
	<rect x="508.3" y="827.5" class="st25" width="83.9" height="56.9"/>
	
		<linearGradient id="SVGID_5_" gradientUnits="userSpaceOnUse" x1="547.9809" y1="256.5828" x2="547.9809" y2="609.8085" gradientTransform="matrix(1 0 0 -1 0 1101.6171)">
		<stop  offset="0" style="stop-color:#FFFFFF"/>
		<stop  offset="0.8464" style="stop-color:#EB97C1"/>
	</linearGradient>
	<path class="st26" d="M748,807.2c-1.6,9.2,0.9,11,1.2,11.3c-1.3-0.2-25.4-3.4-43.8-13.1c-5.4-2.9-10.3-6.3-13.9-10.3
		c-5.5-6.1-11.7-17.4-17.4-29.8l0,0c-8.7-18.9-16.5-40.2-19.5-48.8c-0.9-2.5-1.4-4-1.4-4s-0.4,81.8,1.5,97.9
		c0.1,0.7,0.2,1.2,0.2,1.6c2.2,10.9-10.9,33.9-52.1,33c-15-0.3-28.3-0.4-39.3-0.4v0.4c0,0-5.7-0.2-15.6-0.3
		c-9.9,0.1-15.6,0.3-15.6,0.3v-0.4c-11,0-24.3,0.1-39.3,0.4c-9,0.2-16.7-0.8-23.2-2.5c-10.6-2.8-18-7.7-22.6-13
		c-5.5-6.2-7.2-12.9-6.3-17.5c2.2-10.9,1.7-99.5,1.7-99.5s-1.6,4.8-4.3,12.2c-3.9,10.5-9.9,26.2-16.5,40.5l0,0
		c-5.7,12.3-11.8,23.6-17.4,29.8c-16.2,18-56.5,23.3-57.7,23.5c0.3-0.2,2.9-1.9,1.3-11.3c-1.7-10-20.8-17.8-20.8-17.8l39.1-40l0,0
		c0-0.2,0.5-1.9,1.6-5.8c0.3-1.2,0.7-2.6,1.1-4.2c0.6-2.4,1.4-5.2,2.2-8.6c0.4-1.4,0.7-2.8,1.1-4.4c1.2-4.8,3.9-19.3,7.5-38.4l0,0
		c5.8-30.2,14.3-71.9,24-104.3c5.8-19.2,12-35.2,18.4-43.7c2.8-3.7,6.3-7.2,10.3-10.6c5.4-4.5,11.6-8.5,18.2-12.2
		c30.5-16.7,69-25.4,69-25.4h56.7c0,0,33.3,7.5,62.4,22.1c6.9,3.5,13.6,7.4,19.6,11.7c6.1,4.4,11.4,9.2,15.4,14.5
		c12,16,23.5,58.9,32.5,99.7c3.4,15.5,6.5,30.8,9.1,44.1c4.1,21.1,7,37.4,8.3,42.6c0.4,1.6,0.8,3,1.1,4.4c0.9,3.4,1.6,6.2,2.2,8.6
		c0.4,1.6,0.8,3,1.1,4.2c1,3.9,1.5,5.6,1.6,5.8l0,0l39.1,40C768.8,789.4,749.7,797.2,748,807.2z"/>
	<path class="st27" d="M579.5,517c0.1,9.4-1.4,18.1-7.3,34.7c-13.8,38.9-36.6,28.1-50-4.6c-4.6-11.2-6.5-22.5-7.2-30.1
		c-0.1-1.3-0.2-2.5-0.2-3.5c-0.5-10.7,3-16,3-16l1.7-40.9l53.7-4.2l0.2,15.2l1.4,27c0,0,4.1,6.8,4.6,19.9
		C579.4,515.3,579.5,516.2,579.5,517z"/>
	<path class="st27" d="M587.6,396.7c0,0,5.1-13.5,9.4-14.3s6.5,14.3,2.6,25.6s-13.4,15.2-13.4,15.2L587.6,396.7z"/>
	<path class="st28" d="M316.7,790c0,0-12.5-0.4-17.5-4.7s-21.3-20.6-26.3-22s-11.9,2-11.9,2s-0.7,6.7,4.8,7.8
		c5.4,1.1,21.3,29.1,33.4,31.7c12.1,2.6,18.5-1.5,19.1-6.3C318.9,793.8,316.7,790,316.7,790z"/>
	<path class="st27" d="M496.6,405.9c0,0-5.2-11.3-11.2-11.7c-6.1-0.4-1.7,18.7,5.4,26.5c7.2,7.8,11.5,9,11.5,9L496.6,405.9z"/>
	
		<linearGradient id="SVGID_6_" gradientUnits="userSpaceOnUse" x1="493.2619" y1="703.2924" x2="493.2619" y2="678.9754" gradientTransform="matrix(1 0 0 -1 0 1101.6171)">
		<stop  offset="1.396800e-02" style="stop-color:#B73D67"/>
		<stop  offset="1" style="stop-color:#342B52;stop-opacity:0"/>
	</linearGradient>
	<path class="st29" d="M489.4,399c0,0-4.6-3.1-3,3.9s4.3,11.5,4.3,11.5s-2-4.4-1.3-6.9c0,0,1.1,6.3,4.8,9.8s6.3,5.4,6.3,5.4l-4.7-13
		L489.4,399z"/>
	<polygon class="st25" points="482.4,384.8 500.2,421 492.3,388.3 	"/>
	
		<linearGradient id="SVGID_7_" gradientUnits="userSpaceOnUse" x1="432.5197" y1="336.3085" x2="432.5197" y2="490.7085" gradientTransform="matrix(1 0 0 -1 0 1101.6171)">
		<stop  offset="0.3613" style="stop-color:#662A7D"/>
		<stop  offset="1" style="stop-color:#342B52;stop-opacity:0"/>
	</linearGradient>
	<path class="st30" d="M442.7,712.5c0,0-9.6,28.4-20.9,52.8c8.3-21.5,20.9-154.4,20.9-154.4C444,622.6,442.7,712.5,442.7,712.5z"/>
	
		<linearGradient id="SVGID_8_" gradientUnits="userSpaceOnUse" x1="366.2808" y1="358.0236" x2="406.2808" y2="358.0236" gradientTransform="matrix(1 0 0 -1 0 1101.6171)">
		<stop  offset="0.3613" style="stop-color:#662A7D"/>
		<stop  offset="1" style="stop-color:#342B52;stop-opacity:0"/>
	</linearGradient>
	<path class="st31" d="M406.3,739.4c-23.4-0.6-39.5,9.7-40,10c0.1-0.2,0.9-3.1,2.7-10.1C383.5,735.8,406.3,739.4,406.3,739.4z"/>
	
		<linearGradient id="SVGID_9_" gradientUnits="userSpaceOnUse" x1="367.8809" y1="366.9429" x2="408.1808" y2="366.9429" gradientTransform="matrix(1 0 0 -1 0 1101.6171)">
		<stop  offset="0.3613" style="stop-color:#662A7D"/>
		<stop  offset="1" style="stop-color:#342B52;stop-opacity:0"/>
	</linearGradient>
	<path class="st32" d="M408.2,726.4c-30.3,2-40.3,17.2-40.3,17.2c0.3-1.2,0.7-2.6,1.1-4.2c0.6-2.4,1.4-5.2,2.2-8.6
		C384.2,723.2,408.2,726.4,408.2,726.4z"/>
	<path class="st27" d="M342.4,821.6c-11.1,4.9-21.5,6.8-42.4,5.5c-20.8-1.3-28.3-2.9-32.6-6.8c-4.2-3.9-22.5-26.2-20.5-31.4
		c2-5.1,10.4-25.7,10.4-25.7s6.5,0.3,4.2,9.8c-0.6,2.7-1.3,4.8-1.9,6.6l0,0c0,0,0,0,0,0.1c-1.4,4.5-2,6.9,1.3,10.6
		c4.6,5.2,6.5,7.2,6.5,7.2s-1.3-21.6-0.3-24.8s4.4-2.9,5.8,0.4c0,0.1,0.1,0.2,0.1,0.3c1.3,3.6,2.3,8.1,2.3,8.1s0-0.8,0.3-1.7l0,0
		c0.4-1.5,1.3-3.2,3.3-2.2s5.5,6.3,7.8,10.1c1.2,2,2.1,3.6,2.3,3.9l0,0c0,0,1-6.2,4.2-3.3c3.3,2.9,11.1,15,14.3,13.7
		c3.3-1.3,3.3-11.6,12.4-13c0,0,12.4-1.3,23.8,6.8C355.1,804,353.5,816.7,342.4,821.6z"/>
	
		<linearGradient id="SVGID_10_" gradientUnits="userSpaceOnUse" x1="286.6608" y1="301.0069" x2="299.1409" y2="301.0069" gradientTransform="matrix(1 0 0 -1 0 1101.6171)">
		<stop  offset="1.396800e-02" style="stop-color:#B73D67"/>
		<stop  offset="1" style="stop-color:#342B52;stop-opacity:0"/>
	</linearGradient>
	<path class="st33" d="M299.2,813.5c0,0-4.3,0.2-6.7-2.6c-1.8-2.1-4.5-16-5.8-23.2c1.2,2,2.1,3.6,2.3,3.9l0,0
		C289,791.6,295.7,810.5,299.2,813.5z"/>
	
		<linearGradient id="SVGID_11_" gradientUnits="userSpaceOnUse" x1="272.8809" y1="310.0585" x2="283.0809" y2="310.0585" gradientTransform="matrix(1 0 0 -1 0 1101.6171)">
		<stop  offset="1.396800e-02" style="stop-color:#B73D67"/>
		<stop  offset="1" style="stop-color:#342B52;stop-opacity:0"/>
	</linearGradient>
	<path class="st34" d="M283.1,810c0,0-6.5-5.1-7.6-12.5c-0.8-5.2-2-17.6-2.6-24.4c0,0.1,0.1,0.2,0.1,0.3c1.3,3.6,2.3,8.1,2.3,8.1
		s0-0.8,0.3-1.7c0.2,3.4,0.7,7.8,2.1,12.5C280.7,802.2,283.1,810,283.1,810z"/>
	<path class="st35" d="M469.8,567.6c-14.6-5-37.2-38.1-37.2-38.1c5.4-4.5,11.6-8.5,18.2-12.2C460.4,533.8,481.3,571.6,469.8,567.6z"
		/>
	
		<linearGradient id="SVGID_12_" gradientUnits="userSpaceOnUse" x1="256.5081" y1="306.9585" x2="268.8033" y2="306.9585" gradientTransform="matrix(1 0 0 -1 0 1101.6171)">
		<stop  offset="1.396800e-02" style="stop-color:#B73D67"/>
		<stop  offset="1" style="stop-color:#342B52;stop-opacity:0"/>
	</linearGradient>
	<path class="st36" d="M268.8,809.7c-3-4.1-11.7-16-12.2-18.2c-0.6-2.5,2.7-10.9,3.1-11.9c-1.4,4.5-2,6.9,1.3,10.6
		c4.6,5.2,6.5,7.2,6.5,7.2S268,807.6,268.8,809.7z"/>
	<path class="st28" d="M779.4,790c0,0,12.5-0.4,17.5-4.7s21.3-20.6,26.3-22s11.9,2,11.9,2s0.7,6.7-4.8,7.8
		c-5.4,1.1-21.3,29.1-33.4,31.7c-12.1,2.6-18.5-1.5-19.1-6.3S779.4,790,779.4,790z"/>
	<path class="st37" d="M518.1,492c0,0-21.6,8-19.3,34.1c2.3,26-2,43-17.8,40.7s-13.2-61.6-13.2-61.6L518.1,492z"/>
	
		<linearGradient id="SVGID_13_" gradientUnits="userSpaceOnUse" x1="303.1578" y1="296.7196" x2="320.0131" y2="296.7196" gradientTransform="matrix(1 0 0 -1 0 1101.6171)">
		<stop  offset="1.396800e-02" style="stop-color:#B73D67"/>
		<stop  offset="1" style="stop-color:#342B52;stop-opacity:0"/>
	</linearGradient>
	<path class="st38" d="M303.2,799.8c0,0,9,9.6,12.1,10s4.8,0,4.8,0L303.2,799.8z"/>
	<path class="st39" d="M518.7,475.3l-0.6,16.7l-21.1,6.1c-17,13.7,5.3,52.8-6.2,68s-45-9.1-47.4-40.8c-2.5-31.7,44.2-40,52.8-43.9
		C504.9,477.5,518.7,475.3,518.7,475.3z"/>
	
		<linearGradient id="SVGID_14_" gradientUnits="userSpaceOnUse" x1="663.3803" y1="291.5117" x2="1021.1808" y2="291.5117" gradientTransform="matrix(1 0 0 -1 0 1101.6171)">
		<stop  offset="9.725609e-02" style="stop-color:#371722"/>
		<stop  offset="1" style="stop-color:#721634"/>
	</linearGradient>
	<path class="st40" d="M1021.2,809.5c-1.4,15.8-6.2,35.2-18.5,55.1c-2.4,3.9-5.1,7.8-8.2,11.8c-59.8,29.2-143.2,26-237.7-31.4
		s-93.4-92.5-93.4-92.5l21.1-26.8c0,0,80.8,100.6,217.6,109.6C958.8,839.1,996.5,826,1021.2,809.5z"/>
	<path class="st22" d="M518.7,482.9l-0.6,9.1l-21.1,6.1C500.2,488.2,518.7,482.9,518.7,482.9z"/>
	
		<linearGradient id="SVGID_15_" gradientUnits="userSpaceOnUse" x1="652.7031" y1="413.5085" x2="674.1407" y2="413.5085" gradientTransform="matrix(1 0 0 -1 0 1101.6171)">
		<stop  offset="0.3613" style="stop-color:#662A7D"/>
		<stop  offset="1" style="stop-color:#342B52;stop-opacity:0"/>
	</linearGradient>
	<path class="st41" d="M653.3,712.5c0,0,9.6,28.4,20.9,52.8c-8.2-21.5-20.9-154.4-20.9-154.4C652,622.6,653.3,712.5,653.3,712.5z"/>
	
		<linearGradient id="SVGID_16_" gradientUnits="userSpaceOnUse" x1="689.7808" y1="358.0236" x2="729.7808" y2="358.0236" gradientTransform="matrix(1 0 0 -1 0 1101.6171)">
		<stop  offset="0.3613" style="stop-color:#662A7D"/>
		<stop  offset="1" style="stop-color:#342B52;stop-opacity:0"/>
	</linearGradient>
	<path class="st42" d="M689.8,739.4c23.4-0.6,39.5,9.7,40,10c-0.1-0.2-0.9-3.1-2.7-10.1C712.5,735.8,689.8,739.4,689.8,739.4z"/>
	<path class="st37" d="M574.4,492c0,0,21.6,8,19.3,34.1c-2.3,26,2,43,17.8,40.7s13.2-61.6,13.2-61.6L574.4,492z"/>
	
		<linearGradient id="SVGID_17_" gradientUnits="userSpaceOnUse" x1="687.7808" y1="366.9429" x2="728.0808" y2="366.9429" gradientTransform="matrix(1 0 0 -1 0 1101.6171)">
		<stop  offset="0.3613" style="stop-color:#662A7D"/>
		<stop  offset="1" style="stop-color:#342B52;stop-opacity:0"/>
	</linearGradient>
	<path class="st43" d="M687.8,726.4c30.3,2,40.3,17.2,40.3,17.2c-0.3-1.2-0.7-2.6-1.1-4.2c-0.6-2.4-1.4-5.2-2.2-8.6
		C711.8,723.2,687.8,726.4,687.8,726.4z"/>
	<path class="st27" d="M753.6,821.6c11.1,4.9,21.5,6.8,42.3,5.5s28.3-2.9,32.6-6.8c4.2-3.9,22.5-26.2,20.5-31.4
		c-1.9-5.1-10.4-25.7-10.4-25.7s-6.5,0.3-4.2,9.8c0.6,2.7,1.3,4.8,1.9,6.6l0,0c0,0,0,0,0,0.1c1.4,4.5,2,6.9-1.3,10.6
		c-4.6,5.2-6.5,7.2-6.5,7.2s1.3-21.6,0.3-24.8s-4.4-2.9-5.8,0.4c0,0.1-0.1,0.2-0.1,0.3c-1.3,3.6-2.3,8.1-2.3,8.1s-0.1-0.8-0.3-1.7
		l0,0c-0.4-1.5-1.3-3.2-3.3-2.2c-2.1,1-5.5,6.3-7.8,10.1c-1.2,2-2.1,3.6-2.3,3.9l0,0c0,0-1-6.2-4.2-3.3c-3.3,2.9-11.1,15-14.3,13.7
		c-3.3-1.3-3.3-11.6-12.4-13c0,0-12.4-1.3-23.8,6.8C740.9,804,742.6,816.7,753.6,821.6z"/>
	
		<linearGradient id="SVGID_18_" gradientUnits="userSpaceOnUse" x1="796.8591" y1="301.0069" x2="809.3391" y2="301.0069" gradientTransform="matrix(1 0 0 -1 0 1101.6171)">
		<stop  offset="1.396800e-02" style="stop-color:#B73D67"/>
		<stop  offset="1" style="stop-color:#342B52;stop-opacity:0"/>
	</linearGradient>
	<path class="st44" d="M796.9,813.5c0,0,4.3,0.2,6.7-2.6c1.8-2.1,4.5-16,5.8-23.2c-1.2,2-2.1,3.6-2.3,3.9l0,0
		C807.1,791.6,800.4,810.5,796.9,813.5z"/>
	
		<linearGradient id="SVGID_19_" gradientUnits="userSpaceOnUse" x1="812.9091" y1="310.0585" x2="823.1091" y2="310.0585" gradientTransform="matrix(1 0 0 -1 0 1101.6171)">
		<stop  offset="1.396800e-02" style="stop-color:#B73D67"/>
		<stop  offset="1" style="stop-color:#342B52;stop-opacity:0"/>
	</linearGradient>
	<path class="st45" d="M812.9,810c0,0,6.5-5.1,7.6-12.5c0.8-5.2,2-17.6,2.6-24.4c0,0.1-0.1,0.2-0.1,0.3c-1.3,3.6-2.3,8.1-2.3,8.1
		s-0.1-0.8-0.3-1.7c-0.2,3.4-0.7,7.8-2.1,12.5C815.3,802.2,812.9,810,812.9,810z"/>
	
		<linearGradient id="SVGID_20_" gradientUnits="userSpaceOnUse" x1="827.1808" y1="306.9585" x2="839.4761" y2="306.9585" gradientTransform="matrix(1 0 0 -1 0 1101.6171)">
		<stop  offset="1.396800e-02" style="stop-color:#B73D67"/>
		<stop  offset="1" style="stop-color:#342B52;stop-opacity:0"/>
	</linearGradient>
	<path class="st46" d="M827.2,809.7c3-4.1,11.7-16,12.2-18.2c0.6-2.5-2.7-10.9-3.1-11.9c1.4,4.5,2,6.9-1.3,10.6
		c-4.6,5.2-6.5,7.2-6.5,7.2S828,807.6,827.2,809.7z"/>
	<path class="st25" d="M337.6,1005.6c52.8-3.9,83-37.1,94.7-41.1c6.1-2,22.6-4.9,55.9-9c30-3.7,73.7-8.4,135.8-14.4
		c131-12.7,193.5-56.7,192.8-96.1c-0.7-39.4-67.7-45.6-132.2-35.3c-54.8,8.8-177.8,66.3-213.8,83.5c-6.4,3.1-10,4.8-10,4.8
		s-13.7,6.8-28.4,14.7s-23.4,2-35.6,4.9s-77.7,41-96.6,62.5C281.2,1001.7,284.8,1009.5,337.6,1005.6z"/>
	<path class="st35" d="M658.3,525.6c-1.3,21.2-30.9,39.8-30.9,39.8l7.3-48.3c0,0,1.6-1.5,4-3.1C645.7,517.4,652.4,521.3,658.3,525.6
		z"/>
	
		<linearGradient id="SVGID_21_" gradientUnits="userSpaceOnUse" x1="546.798" y1="466.4085" x2="546.798" y2="256.5828" gradientTransform="matrix(1 0 0 -1 0 1101.6171)">
		<stop  offset="0.3613" style="stop-color:#662A7D"/>
		<stop  offset="1" style="stop-color:#342B52;stop-opacity:0"/>
	</linearGradient>
	<path class="st47" d="M602.9,845c-15-0.3-28.3-0.4-39.3-0.4v0.4c0,0-5.7-0.2-15.6-0.3c-9.9,0.1-15.6,0.3-15.6,0.3v-0.4
		c-11,0-24.3,0.1-39.3,0.4c-9,0.2-16.7-0.8-23.2-2.5c-9.3-4.6-16.8-9.1-22.6-13c-5.5-6.2-7.2-12.9-6.3-17.5
		c2.2-10.9,1.7-99.5,1.7-99.5s-1.6,4.8-4.3,12.2l4.8-77.7c0,0,4,118.1,49.6,160.3c45.6,42.1,119.3,25.4,141.5-1.7
		c20.2-24.7,18.9-149,18.5-170.4l1.9,81.3c-0.9-2.5-1.4-4-1.4-4s-0.4,88.6,1.7,99.5C657.2,822.9,644.2,845.9,602.9,845z"/>
	
		<linearGradient id="SVGID_22_" gradientUnits="userSpaceOnUse" x1="287.9426" y1="151.3131" x2="492.1023" y2="151.3131" gradientTransform="matrix(1 0 0 -1 0 1101.6171)">
		<stop  offset="0.1242" style="stop-color:#E90E8B"/>
		<stop  offset="0.8569" style="stop-color:#FFFFFF"/>
	</linearGradient>
	<path class="st48" d="M491.9,951.4c-0.1,1.6-0.3,3.1-0.5,4.7c-34.1,4.2-51,7.2-57.3,9.2c-11.9,4-42.9,38-97,42.1
		c-54.1,4-57.8-4-38.5-26c12.9-14.6,46-37.3,70.4-51.7c12.3-7.3,22.4-12.5,26.6-13.5c12.5-3,23.4,4,38.5-4c5-2.7,9.9-5.2,14.2-7.4
		c8.7-4.5,14.9-7.6,14.9-7.6s3.7-1.8,10.3-5c3,4.1,6.2,9.2,9.2,15.2C488.6,919.3,493.2,934.3,491.9,951.4z"/>
	<path class="st49" d="M491.9,951.4c-47.6,5.3-99.8-12.4-122.9-21.7c12.3-7.3,22.4-12.5,26.6-13.5c12.5-3,23.4,4,38.5-4
		c5-2.7,9.9-5.2,14.2-7.4l34.4,2.7C488.6,919.3,493.2,934.3,491.9,951.4z"/>
	<path class="st50" d="M826.3,811c0.1-0.1,0.3-0.4,0.8-1c0-0.1,0.1-0.2,0.1-0.3C826.8,810.3,826.4,810.8,826.3,811z"/>
	
		<linearGradient id="SVGID_23_" gradientUnits="userSpaceOnUse" x1="775.9808" y1="296.7419" x2="792.8361" y2="296.7419" gradientTransform="matrix(1 0 0 -1 0 1101.6171)">
		<stop  offset="1.396800e-02" style="stop-color:#B73D67"/>
		<stop  offset="1" style="stop-color:#342B52;stop-opacity:0"/>
	</linearGradient>
	<path class="st51" d="M792.9,799.8c0,0-9,9.6-12.1,10c-3,0.3-4.8,0-4.8,0L792.9,799.8z"/>
	<path class="st35" d="M438.4,609.5L379.9,688c5.8-30.2,14.3-71.9,24-104.3L438.4,609.5z"/>
	<path class="st39" d="M650.5,525.3c-2.5,31.7-35.9,56-47.4,40.8s10.8-54.3-6.2-68l-22.7-6.3l-0.7-16.7c0,0,7.5,1.2,14.6,3l0,0
		c3.3,0.9,6.7,2,9.5,3.2c2,0.9,6,2,10.9,3.6c5.5,1.8,12.1,4.1,18.5,7.3c4.1,2.1,8.1,4.5,11.6,7.4
		C646.2,505.8,651.4,514.1,650.5,525.3z"/>
	
		<linearGradient id="SVGID_24_" gradientUnits="userSpaceOnUse" x1="289.575" y1="195.6095" x2="816.7921" y2="195.6095" gradientTransform="matrix(1 0 0 -1 0 1101.6171)">
		<stop  offset="0" style="stop-color:#1D224C"/>
		<stop  offset="1" style="stop-color:#2C326E"/>
	</linearGradient>
	<path class="st52" d="M812.9,1003.5c-6.2,3.3-20,3.9-44.1,2.2c-52.8-3.9-83-37.1-94.7-41.1c-6.1-2-22.6-4.9-55.9-9
		c-30-3.7-73.7-8.4-135.8-14.4c-131-12.7-193.5-56.7-192.8-96.1c0.1-4.3,0.9-8.2,2.5-11.7c12.7-28.9,72.2-32.8,129.7-23.6
		c54.9,8.7,177.9,66.3,213.9,83.5c6.4,3.1,10,4.8,10,4.8s13.7,6.8,28.4,14.7s23.4,2,35.6,4.9s77.7,41,96.6,62.5
		C816.7,991.9,820.3,999.6,812.9,1003.5z"/>
	
		<linearGradient id="SVGID_25_" gradientUnits="userSpaceOnUse" x1="615.5436" y1="151.63" x2="818.6317" y2="151.63" gradientTransform="matrix(1 0 0 -1 0 1101.6171)">
		<stop  offset="0.1242" style="stop-color:#E90E8B"/>
		<stop  offset="0.8569" style="stop-color:#FFFFFF"/>
	</linearGradient>
	<path class="st53" d="M769.8,1006.7c-53.8-4-84.6-37.8-96.5-41.8c-6.2-2.1-23-5-57-9.2c-3.9-27.6,8.5-50.6,17.8-63.4
		c6.5,3.1,10.2,4.9,10.2,4.9s13.9,7,29,14.9s23.8,2,36.3,5s79.1,41.8,98.4,63.7C827.3,1002.7,823.6,1010.6,769.8,1006.7z"/>
	<path class="st22" d="M573.5,482.5l0.7,9.4l22.7,6.3C593.7,488.2,573.5,482.5,573.5,482.5z"/>
	
		<linearGradient id="SVGID_26_" gradientUnits="userSpaceOnUse" x1="143.3809" y1="492.1085" x2="425.7808" y2="492.1085" gradientTransform="matrix(1 0 0 -1 0 1101.6171)">
		<stop  offset="0" style="stop-color:#FFC713"/>
		<stop  offset="0.6573" style="stop-color:#F78F20"/>
	</linearGradient>
	<polygon class="st54" points="425.8,609 325,744.8 143.4,610.1 244.2,474.2 	"/>
	
		<linearGradient id="SVGID_27_" gradientUnits="userSpaceOnUse" x1="223.3809" y1="546.0085" x2="425.7808" y2="546.0085" gradientTransform="matrix(1 0 0 -1 0 1101.6171)">
		<stop  offset="3.794483e-02" style="stop-color:#50B8DC"/>
		<stop  offset="1" style="stop-color:#FFFFFF"/>
	</linearGradient>
	<polygon class="st55" points="425.8,609 405,637 223.4,502.3 244.2,474.2 	"/>
	
		<rect x="216.5" y="539.1" transform="matrix(0.5958 -0.8031 0.8031 0.5958 -353.0965 414.855)" class="st6" width="38.3" height="38.3"/>
	
		<rect x="181.5" y="586.2" transform="matrix(0.5958 -0.8031 0.8031 0.5958 -405.0408 405.8497)" class="st6" width="38.3" height="38.3"/>
	
		<rect x="272.6" y="580.8" transform="matrix(0.5958 -0.8031 0.8031 0.5958 -363.8908 476.8273)" class="st6" width="38.3" height="38.3"/>
	
		<rect x="237.7" y="627.8" transform="matrix(0.5958 -0.8031 0.8031 0.5958 -415.7312 467.7487)" class="st6" width="38.3" height="38.3"/>
	
		<rect x="328.3" y="622" transform="matrix(0.5958 -0.8031 0.8031 0.5958 -374.4959 538.16)" class="st6" width="38.3" height="38.3"/>
	<path class="st37" d="M611.5,544.9c0,0,9.7-30,5.4-43.1c-4.2-12.9-28-23.3-28.8-23.6c3.3,0.9,6.7,2,9.5,3.2c2,0.9,6,2,10.9,3.6
		c5.5,1.8,12.1,4.1,18.5,7.3c4.1,2.1,8.1,4.5,11.6,7.4c1.7,6.8,2.5,13.8,2.6,18.7C641.7,529.6,627.5,576.8,611.5,544.9z"/>
	
		<rect x="293.4" y="669.1" transform="matrix(0.5958 -0.8031 0.8031 0.5958 -426.4402 529.1547)" class="st6" width="38.3" height="38.3"/>
	<path class="st39" d="M270.1,511.8L270.1,511.8c-2.6-2-3.2-5.7-1.2-8.3l15.1-20.4c2-2.6,5.7-3.2,8.3-1.2l0,0c2.6,2,3.2,5.7,1.2,8.3
		l-15.1,20.4C276.5,513.2,272.7,513.8,270.1,511.8z"/>
	<path class="st39" d="M381.9,594.7L381.9,594.7c-2.6-2-3.2-5.7-1.2-8.3l15.1-20.4c2-2.6,5.7-3.2,8.3-1.2l0,0c2.6,2,3.2,5.7,1.2,8.3
		l-15.1,20.4C388.2,596.1,384.5,596.7,381.9,594.7z"/>
	
		<linearGradient id="SVGID_28_" gradientUnits="userSpaceOnUse" x1="519.6808" y1="637.7324" x2="573.9808" y2="637.7324" gradientTransform="matrix(1 0 0 -1 0 1101.6171)">
		<stop  offset="1.396800e-02" style="stop-color:#B73D67"/>
		<stop  offset="1" style="stop-color:#342B52;stop-opacity:0"/>
	</linearGradient>
	<path class="st56" d="M574,467.6c-6.2,3.6-17.1,8.3-30.3,7.7c-10.2-0.4-18.4-5.9-24-11.4v-7.3l53.5-4.2L574,467.6z"/>
	
		<linearGradient id="SVGID_29_" gradientUnits="userSpaceOnUse" x1="221.3185" y1="540.0764" x2="251.8522" y2="540.0764" gradientTransform="matrix(1 0 0 -1 0 1101.6171)">
		<stop  offset="0" style="stop-color:#8DC63F"/>
		<stop  offset="1" style="stop-color:#FFC709"/>
	</linearGradient>
	<polyline class="st57" points="224.8,553.1 227.7,566.1 250.7,557.9 	"/>
	
		<linearGradient id="SVGID_30_" gradientUnits="userSpaceOnUse" x1="243.4692" y1="452.5296" x2="273.9735" y2="452.5296" gradientTransform="matrix(1 0 0 -1 0 1101.6171)">
		<stop  offset="0" style="stop-color:#8DC63F"/>
		<stop  offset="1" style="stop-color:#FFC709"/>
	</linearGradient>
	<polyline class="st58" points="246.9,640.6 249.9,653.7 272.8,645.4 	"/>
	
		<linearGradient id="SVGID_31_" gradientUnits="userSpaceOnUse" x1="187.2692" y1="494.2397" x2="217.8029" y2="494.2397" gradientTransform="matrix(1 0 0 -1 0 1101.6171)">
		<stop  offset="0" style="stop-color:#8DC63F"/>
		<stop  offset="1" style="stop-color:#FFC709"/>
	</linearGradient>
	<polyline class="st59" points="190.7,598.9 193.7,612 216.7,603.8 	"/>
	
		<linearGradient id="SVGID_32_" gradientUnits="userSpaceOnUse" x1="333.6648" y1="457.8763" x2="364.1986" y2="457.8763" gradientTransform="matrix(1 0 0 -1 0 1101.6171)">
		<stop  offset="0" style="stop-color:#8DC63F"/>
		<stop  offset="1" style="stop-color:#FFC709"/>
	</linearGradient>
	<polyline class="st60" points="337.1,635.3 340,648.3 363,640.1 	"/>
	<path class="st27" d="M588.1,381.7c-0.8,20.1-1.8,43.4-2.5,45.8c-1.3,4.3-13,29.1-20.9,35.6c-7.8,6.5-29.1,4.3-33.9,2.6
		c-3.3-1.2-14.6-12.2-21-18.8c-3-3-5.1-6.8-6.1-11l-13-54.4c54.2,11.9,84-20.5,84-20.5c-6.6,15.5-19.8,20.6-21,21
		c25.2-6.8,31.5-18.8,32.4-20.6c-7.2,19.4-26.6,30.4-26.6,30.4c14.5-4.3,27.4-18,27.4-18c-1.6,6-10.9,25.7-11.3,26.5L588.1,381.7
		L588.1,381.7z"/>
	<path class="st22" d="M636.6,528.7c-2.6,25.1-14.6,28.7-14.6,28.7l-10.5-12.5c0,0,9.9-18.9,10.5-36.8c0.3-9.5-6.7-17.6-13.4-23.1
		c5.5,1.8,12.1,4.1,18.5,7.3C632.5,499.1,638.4,511.2,636.6,528.7z"/>
	<g>
		<path class="st61" d="M612,542.8c-0.2,0.7-0.3,1.4-0.4,2.1c0,0,0,0,0,0.1c-1,6.3,1.4,12,5.7,13.1c4.8,1.2,10.1-3.6,12-10.7
			c0.8-3.2,0.8-6.3,0.1-8.8c-0.8-3.2-2.7-5.7-5.4-6.3C619.2,530.9,613.8,535.7,612,542.8z"/>
		
			<linearGradient id="SVGID_33_" gradientUnits="userSpaceOnUse" x1="56.3185" y1="512.5441" x2="67.1141" y2="531.2426" gradientTransform="matrix(-0.9678 -0.2517 0.2517 -0.9678 548.9605 1063.9729)">
			<stop  offset="0" style="stop-color:#FFC713"/>
			<stop  offset="0.6573" style="stop-color:#F78F20"/>
		</linearGradient>
		<path class="st62" d="M612,542.8c-0.2,0.7-0.3,1.4-0.4,2.1c0,0,0,0,0,0.1c-0.1,9.3,6.7,13.2,13.4,6.8c3.4-3.2,4.3-8.7,4.4-13.3
			c-0.8-3.2-2.7-5.7-5.4-6.3C619.2,530.9,613.8,535.7,612,542.8z"/>
		<path class="st63" d="M622.1,537.9c0,0.2-0.1,0.3-0.1,0.5l0,0c-0.2,1.4,0.3,2.7,1.3,2.9c1.1,0.3,2.3-0.8,2.7-2.4
			c0.2-0.7,0.2-1.4,0-2c-0.2-0.7-0.6-1.3-1.2-1.4C623.8,535.2,622.6,536.3,622.1,537.9z"/>
		<path class="st63" d="M618.8,540.5c0,0.1,0,0.2,0,0.2l0,0c-0.1,0.7,0.2,1.3,0.6,1.5c0.5,0.1,1.1-0.4,1.3-1.2c0.1-0.4,0.1-0.7,0-1
			c-0.1-0.4-0.3-0.6-0.6-0.7C619.6,539.2,619,539.7,618.8,540.5z"/>
	</g>
	<path class="st37" d="M482.4,544.9c0,0-9.7-30-5.4-43.1c4.2-12.9,28-23.3,28.8-23.6c-3.3,0.9-6.7,2-9.5,3.2c-2,0.9-6,2-10.9,3.6
		c-5.5,1.8-12.1,4.1-18.5,7.3c-4.1,2.1-8.1,4.5-11.6,7.4c-1.7,6.8-2.5,13.8-2.6,18.7C452.2,529.6,466.4,576.8,482.4,544.9z"/>
	<path class="st22" d="M457.3,528.7c2.6,25.1,14.6,28.7,14.6,28.7l10.5-12.5c0,0-9.9-18.9-10.5-36.8c-0.3-9.5,6.7-17.6,13.4-23.1
		c-5.5,1.8-12.1,4.1-18.5,7.3C461.4,499.1,455.5,511.2,457.3,528.7z"/>
	<g>
		<path class="st61" d="M481.9,542.8c0.2,0.7,0.3,1.4,0.4,2.1c0,0,0,0,0,0.1c1,6.3-1.4,12-5.7,13.1c-4.8,1.2-10.1-3.6-12-10.7
			c-0.8-3.2-0.8-6.3-0.1-8.8c0.8-3.2,2.7-5.7,5.4-6.3C474.7,530.9,480.1,535.7,481.9,542.8z"/>
		
			<linearGradient id="SVGID_34_" gradientUnits="userSpaceOnUse" x1="232.9124" y1="466.6118" x2="243.708" y2="485.3103" gradientTransform="matrix(0.9678 -0.2517 -0.2517 -0.9678 362.4312 1063.9729)">
			<stop  offset="0" style="stop-color:#FFC713"/>
			<stop  offset="0.6573" style="stop-color:#F78F20"/>
		</linearGradient>
		<path class="st64" d="M481.9,542.8c0.2,0.7,0.3,1.4,0.4,2.1c0,0,0,0,0,0.1c0.1,9.3-6.7,13.2-13.4,6.8c-3.4-3.2-4.3-8.7-4.4-13.3
			c0.8-3.2,2.7-5.7,5.4-6.3C474.7,530.9,480.1,535.7,481.9,542.8z"/>
		<path class="st63" d="M471.8,537.9c0,0.2,0.1,0.3,0.1,0.5l0,0c0.2,1.4-0.3,2.7-1.3,2.9c-1.1,0.3-2.3-0.8-2.7-2.4
			c-0.2-0.7-0.2-1.4,0-2c0.2-0.7,0.6-1.3,1.2-1.4C470.1,535.2,471.3,536.3,471.8,537.9z"/>
		<path class="st63" d="M475.1,540.5c0,0.1,0,0.2,0,0.2l0,0c0.1,0.7-0.2,1.3-0.6,1.5c-0.5,0.1-1.1-0.4-1.3-1.2c-0.1-0.4-0.1-0.7,0-1
			c0.1-0.4,0.3-0.6,0.6-0.7C474.3,539.2,474.9,539.7,475.1,540.5z"/>
	</g>
	<path class="st22" d="M1082.7,820.3c0,0-0.1,1.8-1.7,4.7C1082.1,821.9,1082.7,820.3,1082.7,820.3z"/>
	
		<linearGradient id="SVGID_35_" gradientUnits="userSpaceOnUse" x1="431.6536" y1="770.2949" x2="517.3715" y2="770.2949" gradientTransform="matrix(1 0 0 -1 0 1101.6171)">
		<stop  offset="0.5621" style="stop-color:#B73D67"/>
		<stop  offset="1" style="stop-color:#342B52;stop-opacity:0"/>
	</linearGradient>
	<path class="st65" d="M517.3,384c-34.8-2.5-56.9-12-70.6-24.6c-4.8-5.6-9.2-12.3-12.5-20.1c-13.2-31,25.5-65.1,71.6-60.2h-0.1
		c-34.1-0.9-85.1,27-62.5,64.8C463.7,378.1,508.9,383.4,517.3,384z"/>
	<path class="st35" d="M715.3,683.9l-9.9,121.5c-5.4-2.9-10.3-6.3-13.9-10.3c-5.5-6.1-11.7-17.4-17.4-29.8l0,0
		c-8.7-18.9-16.5-40.2-19.5-48.8c-0.9-2.5-1.4-4-1.4-4s-0.4,81.8,1.5,97.9c-5.6-4-11.5-9.4-17.9-16.8
		c-43-50.2-63.2-117.3-51.7-139.9c11.5-22.6,28.3-21.7,47.2-27.7s32.7,0,32.7,0c7.9,4.5,27.9,10.3,41.1,13.8
		C709.7,655.3,712.7,670.5,715.3,683.9z"/>
	
		<linearGradient id="SVGID_36_" gradientUnits="userSpaceOnUse" x1="464.0809" y1="740.046" x2="574.7808" y2="740.046" gradientTransform="matrix(1 0 0 -1 0 1101.6171)">
		<stop  offset="0" style="stop-color:#63C7D3"/>
		<stop  offset="0.885" style="stop-color:#342B52"/>
	</linearGradient>
	<path class="st66" d="M574.8,361.1c0,0-40.6,15.2-74.6,5.5s-36.1-19.1-36.1-19.1S507.5,400.4,574.8,361.1z"/>
	
		<linearGradient id="SVGID_37_" gradientUnits="userSpaceOnUse" x1="611.4637" y1="549.8585" x2="788.0594" y2="549.8585" gradientTransform="matrix(1 0 0 -1 0 1101.6171)">
		<stop  offset="0" style="stop-color:#63C7D3"/>
		<stop  offset="0.885" style="stop-color:#342B52"/>
	</linearGradient>
	<path class="st67" d="M775,708.2c-3.3,7.5-7.4,14.4-12.1,20.9c-1.8-2.7-2.7-5.1-2.7-5.1s26.6-30.8,11.6-109
		s-95.1-125.1-134.9-162.6c-39.1-36.9-21.6-76.8-21-78c-3.3,20.1-7,53.6,42.5,84.3C721.6,497.7,824.6,596.1,775,708.2z"/>
	<path class="st68" d="M514.7,393.1c0,0-9.3,0.7-12.4,12.1c0,0,7.3-10.4,20-8.5C522.2,396.7,519.9,391.5,514.7,393.1z"/>
	<path class="st68" d="M505.7,411.9c0,0,8-10.3,20.4-5C526.1,406.8,510.1,407.5,505.7,411.9z"/>
	<path class="st68" d="M561.5,392.9c0,0,9.3,0.7,12.4,12.1c0,0-7.3-10.4-20-8.5C553.9,396.5,556.3,391.2,561.5,392.9z"/>
	<path class="st68" d="M570.4,411.6c0,0-8-10.3-20.4-5C550,406.6,566.1,407.2,570.4,411.6z"/>
	
		<linearGradient id="SVGID_38_" gradientUnits="userSpaceOnUse" x1="768.8079" y1="591.6534" x2="768.8079" y2="266.2148" gradientTransform="matrix(1 0 0 -1 0 1101.6171)">
		<stop  offset="3.794483e-02" style="stop-color:#50B8DC"/>
		<stop  offset="1" style="stop-color:#FFFFFF"/>
	</linearGradient>
	<path class="st69" d="M940.1,696.3c0,0-9,4.1-22.9,6.4c-6.9,1.2-15.1,1.9-24,1.4c-26.7-1.3-78-19.5-92.8-19.5s-31.8,7.8-33.3,41.7
		c-1.4,29.3-14.2,78.1-32,98.8c-2.8,3.3-5.7,5.8-8.8,7.5c-22.2,12.3-55-19-68.4-35.9c-11.9-15.1-59.5-73.7-62.8-124.1
		c-0.7-11,4.7-21.5,14.1-27.3c1.2-0.8,2.5-1.5,3.9-2.3c8.7-5,19.7-9.9,30.7-11.1c24-2.6,90.4,30,116.1,22.8
		c25.8-7.2,21.6-20.8,24-29.3c2.3-8.2,7.3-90.2,53.8-108.8c1.5-0.6,3-1.1,4.6-1.6c0,0,9.1-5.6,13.7-5c4.6,0.7,51.5,18.9,73,86.7
		C950.5,664.4,940.1,696.3,940.1,696.3z"/>
	<path class="st70" d="M837.8,516.5c0,0-8.4,16.2,22,92.2s57.4,94,57.4,94s20.8-35.8,6-82.7S850.9,514.7,837.8,516.5z"/>
	<path class="st70" d="M613.1,642.9c0,0,11.3-9.4,46.2,25.5c35,35,65.4,92.4,68.9,111.2s7,45.3,7,45.3s-46.4,0.9-86.4-51.9
		C608.6,720.2,604.8,650.6,613.1,642.9z"/>
	
		<linearGradient id="SVGID_39_" gradientUnits="userSpaceOnUse" x1="595.0202" y1="362.5116" x2="735.0809" y2="362.5116" gradientTransform="matrix(1 0 0 -1 0 1101.6171)">
		<stop  offset="0" style="stop-color:#FFC713"/>
		<stop  offset="0.6573" style="stop-color:#F78F20"/>
	</linearGradient>
	<path class="st71" d="M735.1,825c-2.8,3.3-5.7,5.8-8.8,7.5c-22.2,12.3-55-19-68.4-35.9c-11.9-15.1-59.5-73.7-62.8-124.1
		c-0.7-11,4.7-21.5,14.1-27.3c1.2-0.8,2.5-1.5,3.9-2.3c-0.9,12,2.1,33.4,18.2,70.3C659,776.8,707.3,816.8,735.1,825z"/>
	
		<linearGradient id="SVGID_40_" gradientUnits="userSpaceOnUse" x1="837.7809" y1="495.3309" x2="942.6075" y2="495.3309" gradientTransform="matrix(1 0 0 -1 0 1101.6171)">
		<stop  offset="0" style="stop-color:#FFC713"/>
		<stop  offset="0.6573" style="stop-color:#F78F20"/>
	</linearGradient>
	<path class="st72" d="M940.1,696.3c0,0-9,4.1-22.9,6.4c1.9-20.7,2.7-62.1-14.2-106.1c-17-44.2-48.3-69.2-65.2-80.1
		c1.5-0.6,3-1.1,4.6-1.6c0,0,9.1-5.6,13.7-5c4.6,0.7,51.5,18.9,73,86.7C950.5,664.4,940.1,696.3,940.1,696.3z"/>
	
		<linearGradient id="SVGID_41_" gradientUnits="userSpaceOnUse" x1="627.4734" y1="419.8557" x2="892.9847" y2="419.8557" gradientTransform="matrix(1 0 0 -1 0 1101.6171)">
		<stop  offset="0" style="stop-color:#8DC63F"/>
		<stop  offset="1" style="stop-color:#FFC709"/>
	</linearGradient>
	<path class="st73" d="M628,660.5c0,0,17.5,98.5,92.8,142.1c0,0,13.9,10.7,19.9-24.4s1.8-89,34.8-104.6c33-15.6,53.2,3.2,87.1,6.5
		s36.5-13,22.2-53.4s-36-73-54.1-66.5c-18.2,6.5-23,65.4-40.6,90.8c-14.6,21.1-18,20.6-57.7,10.2c-39.7-10.4-72.3-22.7-90.5-18.2
		C623.4,647.4,628,660.5,628,660.5z"/>
	
		<linearGradient id="SVGID_42_" gradientUnits="userSpaceOnUse" x1="530.9719" y1="685.3585" x2="542.0942" y2="685.3585" gradientTransform="matrix(1 0 0 -1 0 1101.6171)">
		<stop  offset="0.5621" style="stop-color:#B53C66"/>
		<stop  offset="1" style="stop-color:#342B52;stop-opacity:0"/>
	</linearGradient>
	<path class="st74" d="M534.6,402.8l-3.6,22c-0.2,1.1,0.5,2.1,1.5,2.4l9.6,2.5C542.1,429.6,531.6,430.3,534.6,402.8z"/>
	<path class="st75" d="M528.3,441c0,0,13,11.3,29.1-5.2"/>
	<path class="st39" d="M579.5,517c0.1,9.4-1.4,18.1-7.3,34.7c-13.8,38.9-36.6,28.1-50-4.6c-4.6-11.2-6.5-22.5-7.2-30.1
		C515,517,541,538.9,579.5,517z"/>
	<path class="st76" d="M693,791.6c0,0,30.9-0.8,42.2-47.9c11.3-47.2,18.4-63.5,33.7-66.1c15.3-2.6-3.9,5.5-8.6,33.4
		c-4.7,27.9-3.9,72.6-15.7,89.7S721,822.8,693,791.6z"/>
	<path class="st76" d="M800.5,672.6c0,0,22.2,3.2,56,15.5c33.9,12.3,74.2,7.7,80.1-3.4c6-11.1,2.4-36.6-9.1-36.5
		s-46.9,33.3-82.8,20.2S800.5,672.6,800.5,672.6z"/>
	<path class="st76" d="M833.4,527c0,0-33.8,22.5-40.5,98.9c0,0,10.2-51.5,32.4-70.3s44.8,0,44.8,0S847.4,519.9,833.4,527z"/>
	<g class="st77">
		<path class="st37" d="M516.3,557.2c-0.4-0.7-0.9-1.5-1.3-2.3C515,554.9,515.5,555.8,516.3,557.2z"/>
		<path class="st37" d="M517.4,559.2c-0.4-0.7-0.8-1.4-1.2-2C516.7,557.9,517,558.5,517.4,559.2z"/>
		<path class="st37" d="M517.4,559.2c4.3,7.2,13.6,21.5,21.1,24.6c10.2,4.1,14.8,1.7,14.8,1.7S535.4,589.2,517.4,559.2z"/>
		<path class="st37" d="M566.8,579.4c0,0,9.8-7,12.7-23.6C579.5,555.8,573.9,573.7,566.8,579.4z"/>
	</g>
	
		<linearGradient id="SVGID_43_" gradientUnits="userSpaceOnUse" x1="477.5707" y1="723.1085" x2="477.5707" y2="809.1085" gradientTransform="matrix(1 0 0 -1 0 1101.6171)">
		<stop  offset="0.5621" style="stop-color:#B73D67"/>
		<stop  offset="1" style="stop-color:#342B52;stop-opacity:0"/>
	</linearGradient>
	<path class="st78" d="M514.1,378.5c0,0-44-3.3-62.2-40.1s12.2-45.9,12.2-45.9s-27.8,10.3-22.3,33.9
		C447.3,350,463.6,370.7,514.1,378.5z"/>
	<path class="st79" d="M531,365.1c0,0-51.1-8.5-62.8-35.5s0.2-35.7-11.8-33.2s-22.2,43.1,12.9,67.6s69.6,14.3,72.9,10.3
		C545.4,370.3,542.7,367.8,531,365.1z"/>
	
		<linearGradient id="SVGID_44_" gradientUnits="userSpaceOnUse" x1="592.2964" y1="708.1043" x2="592.2964" y2="684.5737" gradientTransform="matrix(1 0 0 -1 0 1101.6171)">
		<stop  offset="1.396800e-02" style="stop-color:#B73D67"/>
		<stop  offset="1" style="stop-color:#342B52;stop-opacity:0"/>
	</linearGradient>
	<path class="st80" d="M588.7,406.7c0,0,3.6-11.2,5.2-12.7s3.4,0.5,2.9,4.7c-0.5,4.3-1.1,5.9-1.1,5.9s0.9-4.8-0.2-6.4
		c0,0-0.3,9.2-2.7,12.5c-2.3,3.3-4.6,6.3-4.6,6.3S586.9,409.1,588.7,406.7z"/>
	<path class="st49" d="M812.9,1003.5c-6.2,3.3-20,3.9-44.1,2.2c-52.8-3.9-83-37.1-94.7-41.1c-6.1-2-22.6-4.9-55.9-9
		c-30-3.7-73.7-8.4-135.8-14.4c-131-12.7-193.5-56.7-192.8-96.1c0.1-4.3,0.9-8.2,2.5-11.7c0,1,1.9,39.7,88,56.4
		c87.3,16.9,130.3,46.5,179.8,40.4S675,939.3,695,958C715.1,976.6,757.4,1012.9,812.9,1003.5z"/>
</g>
</svg>
