<?xml version="1.0" encoding="utf-8"?>
<!-- Generator: Adobe Illustrator 27.7.0, SVG Export Plug-In . SVG Version: 6.00 Build 0)  -->
<svg version="1.1" xmlns="http://www.w3.org/2000/svg" xmlns:xlink="http://www.w3.org/1999/xlink" x="0px" y="0px"
	 viewBox="0 0 442.3 301.9" style="enable-background:new 0 0 442.3 301.9;" xml:space="preserve">
<style type="text/css">
	.st0{display:none;}
	.st1{display:inline;}
	
		.st2{clip-path:url(#SVGID_00000098196484290282269470000008043974766273779876_);fill:url(#SVGID_00000053534771775857629410000010338493234481928878_);}
	.st3{opacity:0.78;clip-path:url(#SVGID_00000098196484290282269470000008043974766273779876_);}
	.st4{clip-path:url(#SVGID_00000155860237916803904120000013750730846327775678_);}
	.st5{clip-path:url(#SVGID_00000013879928576268606320000010101000264692055473_);}
	.st6{clip-path:url(#SVGID_00000062890523811028309340000002854765892187174559_);}
	.st7{clip-path:url(#SVGID_00000170236822226298455060000006034617014149633924_);}
	.st8{clip-path:url(#SVGID_00000142139306380960975880000008015183798411709069_);}
	.st9{opacity:0.62;}
	.st10{fill:url(#SVGID_00000183943550239816592450000011391798819143179445_);}
	.st11{fill:url(#SVGID_00000167354493534450211350000018444539864348975785_);}
	.st12{fill:url(#SVGID_00000143593776635193083480000000378650423533314945_);}
	.st13{fill:url(#SVGID_00000165918863808226746510000002772543110804076191_);}
	.st14{fill:url(#SVGID_00000047744943769505213430000009932832231088029321_);}
	.st15{fill:url(#SVGID_00000018223371389717440070000014466574848523485628_);}
	.st16{fill:url(#SVGID_00000147220275919718022480000001949252483448411815_);}
	.st17{fill:url(#SVGID_00000072243881165005531320000017702803556525056165_);}
	.st18{fill:url(#SVGID_00000166664831562811403670000011779644572960051622_);}
	.st19{fill:url(#SVGID_00000091699117364173791950000012467224707810840992_);}
	.st20{fill:url(#SVGID_00000060729303725452864800000003801795726125243562_);}
	.st21{clip-path:url(#SVGID_00000155860237916803904120000013750730846327775678_);fill:#FFFFFF;}
	.st22{font-family:'Roboto-Black';}
	.st23{font-size:10.9839px;}
	.st24{display:inline;fill:url(#SVGID_00000080908205962187736020000006143172250452827028_);}
	.st25{display:inline;fill:url(#SVGID_00000007393600079911657600000010636583141413306512_);}
	.st26{fill:none;stroke:#592491;stroke-miterlimit:10;}
	.st27{font-family:'Roboto-Medium';}
	.st28{font-size:7.7118px;}
	.st29{fill:none;}
	.st30{font-family:'SofiaPro-Light';}
	.st31{font-size:7px;}
	.st32{fill:#592491;}
	.st33{font-size:20.794px;}
	.st34{fill:#FFFFFF;}
	.st35{font-size:6.6029px;}
</style>
<g id="BACKGROUND" class="st0">
	<g class="st1">
		<defs>
			<rect id="SVGID_1_" x="-29.2" y="-82.7" width="500" height="500"/>
		</defs>
		<clipPath id="SVGID_00000157269322595391703160000010788890114976714657_">
			<use xlink:href="#SVGID_1_"  style="overflow:visible;"/>
		</clipPath>
		
			<linearGradient id="SVGID_00000047761676911353699270000013636978957327140770_" gradientUnits="userSpaceOnUse" x1="209.1868" y1="-66.8112" x2="233.2921" y2="417.8393">
			<stop  offset="0" style="stop-color:#8E2DE2"/>
			<stop  offset="1" style="stop-color:#4A00E0"/>
		</linearGradient>
		
			<rect x="-29.2" y="-82.7" style="clip-path:url(#SVGID_00000157269322595391703160000010788890114976714657_);fill:url(#SVGID_00000047761676911353699270000013636978957327140770_);" width="500" height="500"/>
		<g style="opacity:0.78;clip-path:url(#SVGID_00000157269322595391703160000010788890114976714657_);">
			
				<image style="overflow:visible;" width="2118" height="1585" xlink:href="CF8D24B3.png"  transform="matrix(0.24 0 0 0.24 -33.2502 -22.482)">
			</image>
		</g>
	</g>
</g>
<g id="OBJECTS">
	<g>
		<g>
			<defs>
				<path id="SVGID_00000150076130247721656840000003796780084017637275_" d="M436.3,308.1H5.3c-5.5,0-10-4.5-10-10V7.1
					c0-5.5,4.5-10,10-10h431c5.5,0,10,4.5,10,10v291C446.3,303.6,441.9,308.1,436.3,308.1z"/>
			</defs>
			<clipPath id="SVGID_00000043424636129344747200000007982700686405374373_">
				<use xlink:href="#SVGID_00000150076130247721656840000003796780084017637275_"  style="overflow:visible;"/>
			</clipPath>
			<g style="clip-path:url(#SVGID_00000043424636129344747200000007982700686405374373_);">
				
					<image style="overflow:visible;" width="1927" height="1448" xlink:href="CF8D24B1.png"  transform="matrix(0.24 0 0 0.24 -10.4502 -18.882)">
				</image>
			</g>
			<g style="clip-path:url(#SVGID_00000043424636129344747200000007982700686405374373_);">
				<defs>
					<polygon id="SVGID_00000000902949443766708060000004367750420249522574_" points="477.9,9 307.8,179.2 475.5,179.2 					"/>
				</defs>
				<clipPath id="SVGID_00000114032247876283326300000003117590027745336753_">
					<use xlink:href="#SVGID_00000000902949443766708060000004367750420249522574_"  style="overflow:visible;"/>
				</clipPath>
				<g style="clip-path:url(#SVGID_00000114032247876283326300000003117590027745336753_);">
					
						<image style="overflow:visible;" width="955" height="1060" xlink:href="CF8D24B7.png"  transform="matrix(0.24 0 0 0.24 271.7898 -39.042)">
					</image>
				</g>
			</g>
			<g style="clip-path:url(#SVGID_00000043424636129344747200000007982700686405374373_);">
				<defs>
					<polygon id="SVGID_00000001665229864839224490000013637797980603905721_" points="328.2,316.3 414.8,229.7 414.8,315.1 					
						"/>
				</defs>
				<clipPath id="SVGID_00000061455785666643170700000014747678259689693589_">
					<use xlink:href="#SVGID_00000001665229864839224490000013637797980603905721_"  style="overflow:visible;"/>
				</clipPath>
				<g style="clip-path:url(#SVGID_00000061455785666643170700000014747678259689693589_);">
					
						<image style="overflow:visible;" width="687" height="702" xlink:href="CF8D24B0.png"  transform="matrix(0.24 0 0 0.24 286.0253 193.5495)">
					</image>
				</g>
			</g>
			<g style="clip-path:url(#SVGID_00000043424636129344747200000007982700686405374373_);">
				<defs>
					<polygon id="SVGID_00000147205829479290019140000014691354107555924631_" points="113.2,210.1 283.4,40 115.7,40 					"/>
				</defs>
				<clipPath id="SVGID_00000093171487529061740500000011874532938969046914_">
					<use xlink:href="#SVGID_00000147205829479290019140000014691354107555924631_"  style="overflow:visible;"/>
				</clipPath>
				<g style="clip-path:url(#SVGID_00000093171487529061740500000011874532938969046914_);">
					
						<image style="overflow:visible;" width="1011" height="987" xlink:href="CF8D24BE.png"  transform="matrix(0.24 0 0 0.24 58.1898 21.198)">
					</image>
				</g>
			</g>
			<g style="clip-path:url(#SVGID_00000043424636129344747200000007982700686405374373_);">
				<defs>
					<polygon id="SVGID_00000142879922445417809090000005586730910046109363_" points="-8.3,328.6 82.4,332.6 161.8,253.3 
						-5.9,253.3 					"/>
				</defs>
				<clipPath id="SVGID_00000045588558405403613710000003538430551241883060_">
					<use xlink:href="#SVGID_00000142879922445417809090000005586730910046109363_"  style="overflow:visible;"/>
				</clipPath>
				<g style="clip-path:url(#SVGID_00000045588558405403613710000003538430551241883060_);">
					
						<image style="overflow:visible;" width="647" height="624" xlink:href="CF8D24BF.png"  transform="matrix(0.24 0 0 0.24 23.8698 234.558)">
					</image>
				</g>
			</g>
			<g style="clip-path:url(#SVGID_00000043424636129344747200000007982700686405374373_);">
				<g class="st9">
					
						<image style="overflow:visible;" width="807" height="797" xlink:href="CF8D24B2.png"  transform="matrix(0.24 0 0 0.24 38.0984 21.4233)">
					</image>
				</g>
				<g>
					
						<linearGradient id="SVGID_00000062914463537110284140000009639437668489778314_" gradientUnits="userSpaceOnUse" x1="267.4988" y1="5.3198" x2="503.2827" y2="5.3198" gradientTransform="matrix(0.6131 -0.6131 0.7569 0.7569 -118.8751 360.3352)">
						<stop  offset="3.415070e-02" style="stop-color:#9B2DE2"/>
						<stop  offset="0.542" style="stop-color:#4A00E0"/>
						<stop  offset="0.965" style="stop-color:#4AAEFF"/>
					</linearGradient>
					<path style="fill:url(#SVGID_00000062914463537110284140000009639437668489778314_);" d="M77.1,175.9L193.7,59.3
						c1-1,1-2.5,0-3.5l0,0c-1-1-2.5-1-3.5,0L73.6,172.4c-0.5,0.5-0.7,1.1-0.7,1.8c0,0,0,0,0,0.1C73,176.4,75.6,177.4,77.1,175.9z"/>
				</g>
			</g>
			<g style="clip-path:url(#SVGID_00000043424636129344747200000007982700686405374373_);">
				<g>
					
						<linearGradient id="SVGID_00000083050177972119852530000005966588279702680983_" gradientUnits="userSpaceOnUse" x1="380.5541" y1="294.0669" x2="616.3387" y2="294.0669" gradientTransform="matrix(0.6131 -0.6131 0.7569 0.7569 -118.8751 360.3352)">
						<stop  offset="3.415070e-02" style="stop-color:#9B2DE2"/>
						<stop  offset="0.542" style="stop-color:#4A00E0"/>
						<stop  offset="0.965" style="stop-color:#4AAEFF"/>
					</linearGradient>
					<path style="fill:url(#SVGID_00000083050177972119852530000005966588279702680983_);" d="M464.9,218.3L361.5,321.6
						c-0.5,0.5-0.7,1.1-0.7,1.8c0,0,0,0,0,0.1c0,2.2,2.6,3.2,4.2,1.7l99.9-99.9V218.3z"/>
				</g>
			</g>
			<g style="clip-path:url(#SVGID_00000043424636129344747200000007982700686405374373_);">
				<g class="st9">
					
						<image style="overflow:visible;" width="902" height="893" xlink:href="CF8D24B5.png"  transform="matrix(0.24 0 0 0.24 239.3898 -62.0821)">
					</image>
				</g>
				<g>
					
						<linearGradient id="SVGID_00000114781492502935881870000001891033058050804644_" gradientUnits="userSpaceOnUse" x1="317.8828" y1="165.7377" x2="805.9533" y2="165.7377" gradientTransform="matrix(-0.6131 0.6131 0.7569 0.7569 640.6921 -507.7877)">
						<stop  offset="3.415070e-02" style="stop-color:#9B2DE2"/>
						<stop  offset="0.542" style="stop-color:#4A00E0"/>
						<stop  offset="0.965" style="stop-color:#4AAEFF"/>
					</linearGradient>
					<path style="fill:url(#SVGID_00000114781492502935881870000001891033058050804644_);" d="M402.5-26L272,104.6c-2,2-2,5.2,0,7.2
						l0.1,0.1c2,2,5.2,2,7.2,0L417-26H402.5z"/>
				</g>
			</g>
			<g style="clip-path:url(#SVGID_00000043424636129344747200000007982700686405374373_);">
				<g class="st9">
					
						<image style="overflow:visible;" width="518" height="509" xlink:href="CF8D24B6.png"  transform="matrix(0.24 0 0 0.24 244.9098 255.198)">
					</image>
				</g>
				<g>
					
						<linearGradient id="SVGID_00000063625673333494438390000013797331734123617179_" gradientUnits="userSpaceOnUse" x1="263.1013" y1="251.3535" x2="424.8161" y2="251.3535" gradientTransform="matrix(0.6131 -0.6131 0.7569 0.7569 -118.8751 360.3352)">
						<stop  offset="3.415070e-02" style="stop-color:#9B2DE2"/>
						<stop  offset="0.542" style="stop-color:#4A00E0"/>
						<stop  offset="0.965" style="stop-color:#4AAEFF"/>
					</linearGradient>
					<path style="fill:url(#SVGID_00000063625673333494438390000013797331734123617179_);" d="M283.2,341.2l48.7-48.7
						c0.7-0.7,0.7-1.7,0-2.4l0,0c-0.7-0.7-1.7-0.7-2.4,0l-51.1,51.1C280,341.2,281.6,341.2,283.2,341.2z"/>
				</g>
			</g>
			<g style="clip-path:url(#SVGID_00000043424636129344747200000007982700686405374373_);">
				<g class="st9">
					
						<image style="overflow:visible;" width="883" height="877" xlink:href="FF664DE0.png"  transform="matrix(0.24 0 0 0.24 192.3498 58.158)">
					</image>
				</g>
				<g>
					
						<linearGradient id="SVGID_00000176017128678278030880000000404255419719300271_" gradientUnits="userSpaceOnUse" x1="341.5807" y1="144.4884" x2="614.1506" y2="144.4884" gradientTransform="matrix(0.6131 -0.6131 0.7569 0.7569 -118.8751 360.3352)">
						<stop  offset="3.495000e-02" style="stop-color:#4AAEFF"/>
						<stop  offset="0.458" style="stop-color:#4A00E0"/>
						<stop  offset="0.9658" style="stop-color:#9B2DE2"/>
					</linearGradient>
					<path style="fill:url(#SVGID_00000176017128678278030880000000404255419719300271_);" d="M230.3,232L367,95.3
						c0.6-0.6,0.6-1.5,0-2.1l0,0c-0.6-0.6-1.5-0.6-2.1,0L228.2,229.8c-0.3,0.3-0.4,0.7-0.4,1.1c0,0,0,0,0,0
						C227.8,232.3,229.4,232.9,230.3,232z"/>
				</g>
			</g>
			<g style="clip-path:url(#SVGID_00000043424636129344747200000007982700686405374373_);">
				<g>
					
						<image style="overflow:visible;" width="746" height="830" xlink:href="FF664DE7.png"  transform="matrix(0.24 0 0 0.24 207.4698 178.3979)">
					</image>
				</g>
				
					<linearGradient id="SVGID_00000013165439393874068690000000746456756126965429_" gradientUnits="userSpaceOnUse" x1="111.4703" y1="227.5791" x2="333.7485" y2="227.5791" gradientTransform="matrix(0.7071 -0.7071 0.7071 0.7071 -52.9694 293.6176)">
					<stop  offset="3.415070e-02" style="stop-color:#9B2DE2"/>
					<stop  offset="0.542" style="stop-color:#4A00E0"/>
					<stop  offset="0.965" style="stop-color:#4AAEFF"/>
				</linearGradient>
				<path style="fill:url(#SVGID_00000013165439393874068690000000746456756126965429_);" d="M242.1,341.6c2.8,0,5.5-0.1,8.3-0.1
					l93.6-93.6c8.1-8.1,8.1-21.2,0-29.3h0c-8.1-8.1-21.2-8.1-29.3,0L190.7,342.5h2.2C209.3,342.1,225.7,341.8,242.1,341.6z"/>
			</g>
			<g style="clip-path:url(#SVGID_00000043424636129344747200000007982700686405374373_);">
				<g>
					<g>
						
							<image style="overflow:visible;" width="580" height="549" xlink:href="FF664DE1.png"  transform="matrix(0.24 0 0 0.24 259.3098 -76.0021)">
						</image>
					</g>
					
						<linearGradient id="SVGID_00000155122099778256210810000008259941833081024149_" gradientUnits="userSpaceOnUse" x1="425.6913" y1="32.877" x2="608.3876" y2="32.877" gradientTransform="matrix(0.7071 -0.7071 0.7071 0.7071 -52.9694 293.6176)">
						<stop  offset="3.415070e-02" style="stop-color:#9B2DE2"/>
						<stop  offset="0.542" style="stop-color:#4A00E0"/>
						<stop  offset="0.965" style="stop-color:#4AAEFF"/>
					</linearGradient>
					<path style="fill:url(#SVGID_00000155122099778256210810000008259941833081024149_);" d="M297.1-40l-25.8,25.8
						c-8.3,8.3-8.3,21.7,0,30h0c8.3,8.3,21.7,8.3,30,0L357.1-40H297.1z"/>
				</g>
				<g class="st9">
					
						<image style="overflow:visible;" width="534" height="562" xlink:href="FF664DE3.png"  transform="matrix(0.24 0 0 0.24 372.8298 16.158)">
					</image>
				</g>
				<g>
					
						<linearGradient id="SVGID_00000162338190718927969750000010992310196318138269_" gradientUnits="userSpaceOnUse" x1="74.5532" y1="182.6231" x2="518.6873" y2="182.6231" gradientTransform="matrix(-0.6131 0.6131 0.7569 0.7569 585.4296 -345.1392)">
						<stop  offset="3.415070e-02" style="stop-color:#9B2DE2"/>
						<stop  offset="0.542" style="stop-color:#4A00E0"/>
						<stop  offset="0.965" style="stop-color:#4AAEFF"/>
					</linearGradient>
					<path style="fill:url(#SVGID_00000162338190718927969750000010992310196318138269_);" d="M464.9,45.3l-59.2,59.2
						c-1.8,1.8-1.8,4.7,0,6.5l0.1,0.1c1.8,1.8,4.7,1.8,6.5,0l52.7-52.7V45.3z"/>
				</g>
				<g>
					
						<linearGradient id="SVGID_00000080180410012971117000000000861229174670344866_" gradientUnits="userSpaceOnUse" x1="226.942" y1="-49.2985" x2="671.0757" y2="-49.2985" gradientTransform="matrix(-0.6131 0.6131 0.7569 0.7569 585.4296 -345.1392)">
						<stop  offset="3.495000e-02" style="stop-color:#4AAEFF"/>
						<stop  offset="0.458" style="stop-color:#4A00E0"/>
						<stop  offset="0.9658" style="stop-color:#9B2DE2"/>
					</linearGradient>
					<path style="fill:url(#SVGID_00000080180410012971117000000000861229174670344866_);" d="M199-40l-62.4,62.4
						c-1.8,1.8-1.8,4.7,0,6.5l0.1,0.1c1.8,1.8,4.7,1.8,6.5,0l69-69H199z"/>
				</g>
				<g>
					<g>
						
							<image style="overflow:visible;" width="489" height="594" xlink:href="FF664DFE.png"  transform="matrix(0.24 0 0 0.24 383.6298 84.558)">
						</image>
					</g>
					
						<linearGradient id="SVGID_00000013191869897302946860000008921333606678810267_" gradientUnits="userSpaceOnUse" x1="217.9431" y1="152.7987" x2="353.0332" y2="152.7987" gradientTransform="matrix(-0.7071 0.7071 -0.7071 -0.7071 757.0063 49.321)">
						<stop  offset="3.495000e-02" style="stop-color:#4AAEFF"/>
						<stop  offset="0.458" style="stop-color:#4A00E0"/>
						<stop  offset="0.9658" style="stop-color:#9B2DE2"/>
					</linearGradient>
					<path style="fill:url(#SVGID_00000013191869897302946860000008921333606678810267_);" d="M464.9,103l-65.5,65.5
						c-6.2,6.2-6.2,16.2,0,22.3v0c6.2,6.2,16.2,6.2,22.3,0l43.2-43.2V103z"/>
				</g>
				<g>
					
						<linearGradient id="SVGID_00000003815343287413494570000005745759550808822656_" gradientUnits="userSpaceOnUse" x1="562.6575" y1="349.8732" x2="697.7479" y2="349.8732" gradientTransform="matrix(0.7071 -0.7071 -0.7071 -0.7071 -208.9922 1015.3196)">
						<stop  offset="3.495000e-02" style="stop-color:#4AAEFF"/>
						<stop  offset="0.458" style="stop-color:#4A00E0"/>
						<stop  offset="0.9658" style="stop-color:#9B2DE2"/>
					</linearGradient>
					<path style="fill:url(#SVGID_00000003815343287413494570000005745759550808822656_);" d="M37,274.5c-6.2-6.2-16.2-6.2-22.3,0
						l-40,40v34.1h9.8c0.5,0,1-0.2,1.4-0.6L37,296.9C43.2,290.7,43.2,280.7,37,274.5z"/>
				</g>
			</g>
			<g style="clip-path:url(#SVGID_00000043424636129344747200000007982700686405374373_);">
				
					<image style="overflow:visible;" width="1824" height="1692" xlink:href="FF664DFF.png"  transform="matrix(0.24 0 0 0.24 -45.2502 -48.162)">
				</image>
			</g>
			<path style="clip-path:url(#SVGID_00000043424636129344747200000007982700686405374373_);fill:#FFFFFF;" d="M47.7,265.2
				c47.9,12.9,88.4-14.4,127.7,4.6c16.2,7.8,27.5,25.7,35.3,45.5h102.6c-21.7-14.8-37.6-38.3-42.4-64.1c-4.6-24.4,0.1-49.8-3.9-74.3
				c-5.7-35.2-30.6-66.7-63.4-80.5c-15.2-6.4-31.6-9.1-46.9-15.2c-24.5-12.3-44-29.2-35.8-59.4c4.1-15.2,14.1-26.8,23.3-39H-8.1
				v222.5C3.7,243.7,28,259.9,47.7,265.2z"/>
		</g>
		<g class="st0">
			<g class="st1">
				<text transform="matrix(1 0 0 1 33.3092 37.9302)" class="st22 st23">Company</text>
			</g>
			
				<linearGradient id="SVGID_00000065766658362618355240000016993680293120878507_" gradientUnits="userSpaceOnUse" x1="82.4443" y1="27.5316" x2="95.8026" y2="27.5316">
				<stop  offset="0" style="stop-color:#8E2DE2"/>
				<stop  offset="1" style="stop-color:#4A00E0"/>
			</linearGradient>
			<path style="display:inline;fill:url(#SVGID_00000065766658362618355240000016993680293120878507_);" d="M82.4,31.9
				c0,0,2.7-6.3,12.7-8.9C95.1,23,100.2,33.2,82.4,31.9z"/>
			
				<linearGradient id="SVGID_00000141441029854845109680000013975022655995428484_" gradientUnits="userSpaceOnUse" x1="80.3123" y1="26.5171" x2="83.6232" y2="26.5171">
				<stop  offset="0" style="stop-color:#8E2DE2"/>
				<stop  offset="1" style="stop-color:#4A00E0"/>
			</linearGradient>
			<path style="display:inline;fill:url(#SVGID_00000141441029854845109680000013975022655995428484_);" d="M81.5,30.3
				c0,0,2.5-2.3,2.1-7.5C83.6,22.8,77.9,22.1,81.5,30.3z"/>
		</g>
		<g class="st0">
			<g class="st1">
				<g>
					<g>
						<path class="st26" d="M93,202.6H35.2c-1.8,0-3.3-1.5-3.3-3.3V189c0-1.8,1.5-3.3,3.3-3.3H93c1.8,0,3.3,1.5,3.3,3.3v10.3
							C96.3,201.2,94.8,202.6,93,202.6z"/>
					</g>
					<g>
						<text transform="matrix(1 0 0 1.01 43.7589 196.4239)" class="st27 st28">Learn more</text>
					</g>
				</g>
				<g>
					<rect x="30.3" y="136.4" class="st29" width="197.2" height="45.7"/>
					<text transform="matrix(1 0 0 1 30.3439 141.4213)"><tspan x="0" y="0" class="st30 st31">Lorem ipsum dolor sit amet, consectetur adipiscing elit. </tspan><tspan x="0" y="10" class="st30 st31">Pellentesque suscipit tellus vitae purus dignissim, nec tincidunt </tspan><tspan x="0" y="20" class="st30 st31">neque condimentum. Nam nec ligula pretium mi interdum </tspan><tspan x="0" y="30" class="st30 st31">hendrerit in sit amet ligula</tspan></text>
				</g>
				<text transform="matrix(1 0 0 1 30.3435 122.9124)" class="st32 st22 st33">Join Us</text>
			</g>
		</g>
		<g class="st0">
			<g class="st1">
				<g>
					<text transform="matrix(1 0 0 1 186.4134 36.766)" class="st34 st30 st35">Home</text>
					<text transform="matrix(1 0 0 1 288.4003 36.766)" class="st34 st30 st35">Portfolio</text>
					<text transform="matrix(1 0 0 1 236.1356 36.766)" class="st34 st30 st35">Service</text>
					<text transform="matrix(1 0 0 1 340.076 36.766)" class="st34 st30 st35">Contact Us</text>
				</g>
			</g>
			<g class="st1">
				<g>
					<path class="st34" d="M414.4,30.7h-8c-0.2,0-0.4-0.2-0.4-0.4l0,0c0-0.2,0.2-0.4,0.4-0.4h8c0.2,0,0.4,0.2,0.4,0.4l0,0
						C414.8,30.5,414.6,30.7,414.4,30.7z"/>
					<path class="st34" d="M414.4,33.8h-8c-0.2,0-0.4-0.2-0.4-0.4l0,0c0-0.2,0.2-0.4,0.4-0.4h8c0.2,0,0.4,0.2,0.4,0.4l0,0
						C414.8,33.6,414.6,33.8,414.4,33.8z"/>
					<path class="st34" d="M414.4,36.9h-8c-0.2,0-0.4-0.2-0.4-0.4l0,0c0-0.2,0.2-0.4,0.4-0.4h8c0.2,0,0.4,0.2,0.4,0.4l0,0
						C414.8,36.7,414.6,36.9,414.4,36.9z"/>
				</g>
			</g>
		</g>
	</g>
</g>
<g id="DESIGNED_BY_FREEPIK" class="st0">
	<g class="st1">
		<g id="XMLID_319_">
			<g id="XMLID_338_">
				<path id="XMLID_346_" class="st34" d="M230.9,375c-0.4,0.4-0.8,0.9-1.1,1.5l-0.5-0.2c-0.1-0.3-0.3-0.5-0.7-0.5
					c-0.3,0-0.6,0.3-0.5,0.7s0.3,0.6,0.7,0.5c0.1,0,0.1,0,0.2-0.1l0.5,0.2c-0.3,0.6-0.4,1.1-0.5,1.7l0.7,0.1
					c0.2-1.3,0.8-2.5,1.8-3.5L230.9,375z"/>
				<path id="XMLID_345_" class="st34" d="M236.4,372.7c-0.2,0-0.3,0-0.5,0l-0.1-0.6c0.2-0.1,0.3-0.4,0.3-0.6c0-0.4-0.4-0.7-0.8-0.6
					c-0.4,0-0.7,0.4-0.6,0.8c0,0.3,0.2,0.5,0.4,0.6l0.1,0.6c-0.7,0.1-1.4,0.3-2.1,0.6l0.3,0.7c0.9-0.4,1.9-0.7,3-0.7
					c0.5,0,1,0.1,1.5,0.2l0.2-0.7C237.5,372.7,237,372.7,236.4,372.7z"/>
				<path id="XMLID_344_" class="st34" d="M243,375.2c0.3,0,0.6-0.3,0.5-0.7c0-0.3-0.3-0.6-0.7-0.5c-0.3,0-0.5,0.3-0.5,0.6l-0.4,0.4
					c-0.4-0.4-0.9-0.8-1.4-1.1l-0.4,0.6c1.1,0.7,2,1.7,2.6,2.9l0.7-0.3c-0.3-0.6-0.6-1.1-0.9-1.5l0.4-0.4
					C242.9,375.2,243,375.2,243,375.2z"/>
				<path id="XMLID_343_" class="st34" d="M235.9,382.9c-0.4,0-0.8,0-1.2,0c-0.9,0-1.7-0.1-2.5-0.2c-0.4-0.1-0.8-0.2-1.3-0.3
					c1,1.9,3.1,3.1,5.4,3.1c2.9,0,5.3-1.9,5.9-4.5c-0.7,0.4-1.5,0.8-2.5,1.1C238.7,382.5,237.3,382.8,235.9,382.9z"/>
				<path id="XMLID_339_" class="st34" d="M236.4,374.2c-3.4,0-6.1,2.7-6.1,5.9c0,0.4,0,0.8,0.1,1.3c0.7,0.5,2.7,0.9,5.3,0.7
					c2.9-0.2,5.3-1,6.7-2.2c0-0.2,0-0.4,0-0.6C242.1,376.4,239.5,374.2,236.4,374.2z M234.3,380.7c-1,0-1.8-0.8-1.8-1.8
					c0-1,0.8-1.8,1.8-1.8c1,0,1.8,0.8,1.8,1.8C236.1,379.9,235.3,380.7,234.3,380.7z M239,379.8c-0.8,0-1.4-0.6-1.4-1.4
					s0.6-1.4,1.4-1.4c0.8,0,1.4,0.6,1.4,1.4S239.7,379.8,239,379.8z"/>
			</g>
			<path id="XMLID_336_" class="st34" d="M252.4,376c-0.3-0.1-0.8-0.3-1.4-0.2c-0.6,0.1-0.8,0.3-0.8,1v0.9h2.2v1.7h-2.2v5.5h-1.9
				v-5.5h-1.3v-1.7h1.3v-0.9c0-1.7,0.9-2.8,2.6-2.8c0.6,0,1.2,0.1,1.6,0.3L252.4,376z"/>
			<path id="XMLID_334_" class="st34" d="M257.1,379.4c-0.2,0-0.4,0-0.5,0c-0.9,0-1.5,0.5-1.5,1.6v3.9h-1.9v-7.2h1.9v0.8
				c0.5-0.7,1.1-1,2-1c0.4,0,0.8,0.1,1.1,0.3L257.1,379.4z"/>
			<path id="XMLID_331_" class="st34" d="M264.8,381.3c0,0.2,0,0.5,0,0.7h-5.1c0.2,1,0.9,1.5,1.8,1.5c0.6,0,1.3-0.3,1.8-0.7l1.1,1.2
				c-0.8,0.7-1.9,1.1-3.1,1.1c-2.2,0-3.7-1.5-3.7-3.8c0-2.3,1.5-3.8,3.6-3.8C263.4,377.5,264.8,379,264.8,381.3z M259.7,380.6h3.2
				c-0.2-0.9-0.7-1.4-1.6-1.4C260.4,379.2,259.9,379.7,259.7,380.6z"/>
			<path id="XMLID_328_" class="st34" d="M272.4,381.3c0,0.2,0,0.5,0,0.7h-5.1c0.2,1,0.9,1.5,1.8,1.5c0.6,0,1.3-0.3,1.8-0.7l1.1,1.2
				c-0.8,0.7-1.9,1.1-3.1,1.1c-2.2,0-3.7-1.5-3.7-3.8c0-2.3,1.5-3.8,3.6-3.8C271,377.5,272.4,379,272.4,381.3z M267.3,380.6h3.2
				c-0.2-0.9-0.7-1.4-1.6-1.4C268,379.2,267.5,379.7,267.3,380.6z"/>
			<path id="XMLID_325_" class="st34" d="M280.8,381.3c0,2.2-1.5,3.8-3.5,3.8c-1,0-1.6-0.4-2.1-0.9v3.7h-1.9v-10.1h1.9v0.8
				c0.5-0.6,1.2-1,2.1-1C279.3,377.5,280.8,379.1,280.8,381.3z M275.1,381.3c0,1.1,0.7,2,1.8,2c1.1,0,1.9-0.9,1.9-2
				c0-1.1-0.7-2-1.9-2C275.9,379.3,275.1,380.1,275.1,381.3z"/>
			<path id="XMLID_322_" class="st34" d="M283.9,375.3c0,0.7-0.5,1.2-1.2,1.2c-0.7,0-1.2-0.5-1.2-1.2c0-0.7,0.5-1.2,1.2-1.2
				C283.4,374.1,283.9,374.6,283.9,375.3z M283.6,384.9h-1.9v-7.2h1.9V384.9z"/>
			<path id="XMLID_320_" class="st34" d="M286.9,380.2l2.7-2.6h2.4l-3.5,3.4l3.5,3.8h-2.4l-2.7-2.9v2.9h-1.9v-10.7h1.9V380.2z"/>
		</g>
		<g>
			<path class="st34" d="M155.2,384.8v-1.1c-0.5,0.7-1.4,1.2-2.4,1.2c-1.8,0-3.1-1.4-3.1-3.7c0-2.3,1.3-3.7,3.1-3.7
				c1,0,1.8,0.5,2.4,1.2V375h1.1v9.8H155.2z M155.2,382.9v-3.2c-0.4-0.6-1.2-1.1-2.1-1.1c-1.4,0-2.3,1.2-2.3,2.7
				c0,1.6,0.8,2.7,2.3,2.7C154,384,154.8,383.5,155.2,382.9z"/>
			<path class="st34" d="M157.8,381.2c0-2.1,1.5-3.7,3.5-3.7c2.1,0,3.4,1.7,3.4,3.8v0.3h-5.7c0.1,1.3,1,2.4,2.5,2.4
				c0.8,0,1.6-0.3,2.2-0.9l0.5,0.7c-0.7,0.7-1.7,1.1-2.8,1.1C159.3,385,157.8,383.5,157.8,381.2z M161.2,378.4
				c-1.5,0-2.3,1.3-2.3,2.4h4.6C163.5,379.8,162.8,378.4,161.2,378.4z"/>
			<path class="st34" d="M165.4,383.9l0.6-0.8c0.5,0.5,1.4,1,2.3,1c1.1,0,1.7-0.5,1.7-1.2c0-1.7-4.4-0.7-4.4-3.3c0-1.1,1-2,2.6-2
				c1.2,0,2.1,0.5,2.6,1l-0.5,0.8c-0.4-0.5-1.2-0.9-2.1-0.9c-1,0-1.6,0.5-1.6,1.1c0,1.6,4.4,0.5,4.4,3.3c0,1.2-1,2.1-2.8,2.1
				C167.1,385,166.2,384.6,165.4,383.9z"/>
			<path class="st34" d="M172.3,376c0-0.4,0.3-0.7,0.7-0.7c0.4,0,0.7,0.3,0.7,0.7c0,0.4-0.3,0.7-0.7,0.7
				C172.6,376.7,172.3,376.4,172.3,376z M172.5,384.8v-7.1h1.1v7.1H172.5z"/>
			<path class="st34" d="M175.4,386.6l0.6-0.8c0.6,0.7,1.3,1,2.3,1c1.2,0,2.3-0.6,2.3-2.1v-1c-0.5,0.7-1.4,1.3-2.4,1.3
				c-1.8,0-3.1-1.4-3.1-3.7c0-2.3,1.3-3.7,3.1-3.7c1,0,1.8,0.5,2.4,1.2v-1.1h1.1v6.9c0,2.3-1.6,3.1-3.4,3.1
				C177.1,387.7,176.2,387.4,175.4,386.6z M180.5,382.8v-3.1c-0.4-0.6-1.2-1.1-2.1-1.1c-1.4,0-2.3,1.1-2.3,2.7
				c0,1.6,0.8,2.7,2.3,2.7C179.3,383.9,180.2,383.4,180.5,382.8z"/>
			<path class="st34" d="M188.2,384.8v-4.6c0-1.2-0.6-1.6-1.6-1.6c-0.9,0-1.7,0.5-2.1,1.1v5.2h-1.1v-7.1h1.1v1
				c0.5-0.6,1.5-1.2,2.5-1.2c1.5,0,2.3,0.7,2.3,2.3v5H188.2z"/>
			<path class="st34" d="M190.8,381.2c0-2.1,1.5-3.7,3.5-3.7c2.1,0,3.4,1.7,3.4,3.8v0.3h-5.7c0.1,1.3,1,2.4,2.5,2.4
				c0.8,0,1.6-0.3,2.2-0.9l0.5,0.7c-0.7,0.7-1.7,1.1-2.8,1.1C192.3,385,190.8,383.5,190.8,381.2z M194.2,378.4
				c-1.5,0-2.3,1.3-2.3,2.4h4.6C196.5,379.8,195.8,378.4,194.2,378.4z"/>
			<path class="st34" d="M204.2,384.8v-1.1c-0.5,0.7-1.4,1.2-2.4,1.2c-1.8,0-3.1-1.4-3.1-3.7c0-2.3,1.3-3.7,3.1-3.7
				c1,0,1.8,0.5,2.4,1.2V375h1.1v9.8H204.2z M204.2,382.9v-3.2c-0.4-0.6-1.2-1.1-2.1-1.1c-1.4,0-2.3,1.2-2.3,2.7
				c0,1.6,0.8,2.7,2.3,2.7C202.9,384,203.8,383.5,204.2,382.9z"/>
			<path class="st34" d="M210.5,384.8V375h1.1v3.8c0.6-0.8,1.4-1.2,2.4-1.2c1.8,0,3.1,1.5,3.1,3.7c0,2.3-1.3,3.7-3.1,3.7
				c-1,0-1.9-0.5-2.4-1.2v1.1H210.5z M213.7,384c1.4,0,2.3-1.2,2.3-2.7c0-1.6-0.8-2.7-2.3-2.7c-0.9,0-1.7,0.5-2.1,1.1v3.2
				C212,383.5,212.9,384,213.7,384z"/>
			<path class="st34" d="M218.4,386.6c0.2,0.1,0.4,0.1,0.6,0.1c0.5,0,0.8-0.2,1.1-0.7l0.5-1.1l-3-7.1h1.2l2.4,5.8l2.3-5.8h1.2
				l-3.5,8.5c-0.4,1-1.1,1.4-2.1,1.4c-0.2,0-0.6,0-0.8-0.1L218.4,386.6z"/>
		</g>
	</g>
</g>
</svg>
